<?xml version="1.0" encoding="UTF-8"?> <svg xmlns="http://www.w3.org/2000/svg" width="1411" height="1080" viewBox="0 0 1411 1080" fill="none"> <path fill-rule="evenodd" clip-rule="evenodd" d="M248.526 649.611C215.104 638.539 216.189 659.046 240.356 673.225C258.924 684.016 270.351 682.547 284.463 679.214L299.545 692.433C295.261 697.8 293.547 704.24 295.603 712.149C298.06 721.357 308.115 728.193 314.057 729.888C319.885 731.413 327.54 731.978 337.024 725.481L344.337 732.034C347.822 734.972 351.707 737.006 355.592 737.853C358.735 738.588 361.877 738.475 364.848 737.74C367.704 736.836 370.39 735.255 372.504 732.769C382.559 721.301 373.589 710.68 364.962 712.318C358.506 713.561 354.735 720.453 357.763 726.329C358.678 728.193 360.163 729.775 361.991 730.792C363.934 731.865 366.105 732.26 368.219 732.091C366.905 733.164 365.362 733.842 363.877 734.351C361.534 735.029 358.963 735.029 356.449 734.52C353.136 733.842 349.822 732.091 346.737 729.492L339.881 723.391C348.222 715.99 350.051 703.845 349.936 700.06C349.194 681.417 334.225 665.147 315.885 662.887C305.316 661.531 292.747 664.752 282.634 667.124C279.092 667.859 277.664 668.028 277.207 668.141C267.894 659.893 261.038 653.848 248.641 649.724L248.526 649.611ZM288.576 678.197C293.775 676.897 299.374 675.542 305.773 674.525C317.714 672.66 328.512 672.886 338.281 680.795C350.45 690.625 348.108 711.98 337.767 721.583L310.458 697.517C315.428 692.433 323.027 692.602 326.455 694.297C330.568 696.444 333.711 699.212 334.111 703.958C334.568 708.816 334.339 709.324 334.339 709.324L335.482 709.607C335.482 709.607 339.824 701.133 331.711 691.416C323.712 681.699 307.715 684.355 301.831 689.947L288.519 678.31L288.576 678.197ZM334.968 723.674C330.683 726.385 325.484 727.289 319.485 725.142C307.658 720.905 303.545 709.211 308.058 700.85C308.172 700.624 308.287 700.511 308.344 700.286L334.968 723.674V723.674ZM273.493 669.497C264.98 672.83 251.897 673.677 243.384 669.723C234.7 665.599 231.901 657.577 241.156 656.391C253.497 654.922 264.752 661.87 273.493 669.553V669.497Z" fill="white"></path> <path fill-rule="evenodd" clip-rule="evenodd" d="M421.637 745.762C399.356 766.439 415.638 774.065 436.435 761.58C452.432 751.977 455.917 742.712 459.173 730.792L475.57 724.804C477.856 730.227 482.141 734.068 489.168 735.763C497.281 737.74 506.707 732.939 510.364 729.097C513.906 725.312 517.505 719.719 516.42 710.003L524.476 707.065C528.246 705.709 531.332 703.562 533.56 701.02C535.388 698.986 536.645 696.557 537.216 693.959C537.73 691.473 537.559 688.761 536.588 686.163C531.903 673.847 519.962 676.276 517.677 683.451C515.963 688.761 519.734 694.523 525.561 694.693C527.389 694.693 529.218 694.241 530.76 693.281C532.36 692.264 533.617 690.795 534.302 689.157C534.531 690.569 534.474 692.038 534.245 693.394C533.788 695.427 532.817 697.348 531.332 699.099C529.389 701.303 526.761 703.054 523.447 704.353L515.963 707.008C513.678 697.687 505.051 691.303 502.08 689.891C487.454 682.829 468.772 687.462 459.459 700.399C454.146 707.799 451.46 718.589 449.061 727.233C448.204 730.227 447.747 731.357 447.633 731.696C437.406 735.424 430.036 738.023 421.694 745.762H421.637ZM460.087 727.233C461.23 722.77 462.487 718.081 464.315 712.714C467.8 702.997 472.371 694.806 482.426 690.738C494.995 685.541 510.478 696.105 513.678 707.799L483.912 718.589C482.083 712.714 485.226 707.065 488.025 705.144C491.339 702.941 494.71 701.642 498.595 703.336C502.537 704.975 502.822 705.314 502.822 705.314L503.508 704.523C503.508 704.523 498.766 697.744 487.911 699.89C477.113 701.981 472.657 715.087 474.542 721.866L460.087 727.12V727.233ZM514.192 710.793C514.535 715.143 513.106 719.493 508.993 723.109C500.823 730.34 490.253 728.645 485.568 721.809C485.454 721.697 485.397 721.471 485.283 721.301L514.249 710.793H514.192ZM447.118 735.029C446.261 742.825 441.576 753.05 435.006 757.908C428.322 762.767 420.895 761.58 423.808 754.123C427.693 744.181 437.634 738.588 447.118 735.029Z" fill="white"></path> <path fill-rule="evenodd" clip-rule="evenodd" d="M369.135 872.589C366.792 873.436 362.907 875.527 360.279 880.724C355.537 889.989 352.966 901.57 345.311 908.914C347.539 908.97 349.824 908.914 352.509 908.406C368.792 905.411 373.191 871.29 372.563 871.516L369.478 872.42L369.135 872.589ZM343.025 910.778C342.054 911.682 341.026 912.247 339.769 912.981C335.084 915.411 327.771 915.919 327.028 916.145C326.286 916.314 324.971 916.089 324.971 916.089C324.971 916.089 318.573 922.698 310.403 923.489C302.176 924.223 296.005 922.529 295.491 922.472C294.748 922.133 293.949 921.851 293.949 921.851L293.492 919.93C293.492 919.93 301.033 922.529 309.603 920.89C326.057 917.953 330.342 883.831 329.771 884.057C329.256 884.057 302.061 892.136 291.949 895.017C291.092 895.243 290.178 895.638 289.321 895.808C284.293 897.05 276.98 894.508 270.981 888.972C263.211 881.628 260.64 871.911 265.097 867.166C269.553 862.533 279.494 864.793 287.378 872.024C293.549 877.899 296.52 885.243 295.034 890.271L363.079 870.499L384.675 864.172L391.474 862.194L392.502 865.979C382.047 869.538 378.562 885.074 374.448 893.378C370.163 901.739 363.536 909.987 353.366 911.004C349.253 911.456 345.653 911.174 343.082 910.835L343.025 910.778ZM351.995 877.899C349.995 888.802 345.996 908.18 333.084 911.908C329.599 912.981 326.857 913.49 326.857 913.49C326.857 913.49 329.199 910.326 331.427 905.863C335.941 897.05 339.655 879.707 351.995 877.956V877.899Z" fill="white"></path> <path fill-rule="evenodd" clip-rule="evenodd" d="M1271.25 668.141C1270.28 668.48 1268.68 669.271 1267.54 671.304C1265.54 675.033 1264.4 679.722 1261.2 682.603C1262.11 682.603 1263.08 682.603 1264.17 682.49C1270.8 681.417 1272.97 667.632 1272.68 667.689L1271.43 668.084H1271.25V668.141ZM1260.23 683.394C1259.83 683.789 1259.43 684.015 1258.91 684.298C1257.03 685.202 1254.06 685.371 1253.71 685.428C1253.43 685.484 1252.91 685.428 1252.91 685.428C1252.91 685.428 1250.23 688.026 1246.92 688.252C1243.55 688.478 1241.09 687.744 1240.86 687.687C1240.52 687.518 1240.23 687.405 1240.23 687.405L1240.06 686.614C1240.06 686.614 1243.09 687.744 1246.57 687.179C1253.26 686.106 1255.37 672.321 1255.14 672.434C1254.97 672.434 1243.83 675.428 1239.72 676.445C1239.37 676.558 1239.03 676.671 1238.63 676.728C1236.58 677.18 1233.66 676.05 1231.26 673.734C1228.18 670.627 1227.26 666.672 1229.09 664.808C1230.98 662.944 1234.98 664.017 1238.06 666.955C1240.46 669.384 1241.6 672.434 1241.03 674.525L1268.8 667.18L1277.6 664.808L1280.34 664.073L1280.74 665.599C1276.45 666.955 1274.85 673.225 1273.08 676.558C1271.25 679.891 1268.51 683.168 1264.34 683.507C1262.68 683.62 1261.26 683.507 1260.17 683.281L1260.23 683.394ZM1264.23 670.118C1263.31 674.581 1261.48 682.377 1256.17 683.733C1254.74 684.128 1253.6 684.298 1253.6 684.298C1253.6 684.298 1254.57 683.055 1255.54 681.247C1257.49 677.688 1259.2 670.683 1264.23 670.062V670.118Z" fill="white"></path> <path fill-rule="evenodd" clip-rule="evenodd" d="M199.451 270.94L204.25 273.652L228.589 230.435L223.733 227.949L199.451 270.94V270.94ZM208.821 276.081L254.927 301.446C255.841 302.011 256.869 302.519 257.726 303.028C263.154 306.304 267.21 314.835 267.268 325.004C267.553 337.884 261.269 348.505 253.327 348.674C245.272 348.844 238.644 338.336 238.416 325.286C238.187 314.891 242.244 306.191 247.957 302.971L188.939 270.545L189.225 269.867L191.167 266.421L215.448 223.317L217.048 220.209L217.734 219.249L281.322 254.388C282.35 254.952 283.322 255.461 284.122 255.913C289.721 259.189 293.663 267.663 293.834 277.832C294.12 290.769 287.721 301.39 279.722 301.503C271.838 301.503 265.154 291.108 264.811 278.171C264.811 267.889 268.582 259.076 274.466 255.687L233.102 232.92L208.764 276.081H208.821Z" fill="white"></path> <path fill-rule="evenodd" clip-rule="evenodd" d="M452.946 661.022C454.26 657.859 456.431 655.486 458.545 654.639L440.148 641.024L441.234 639.499L461.859 654.808C464.03 656.277 464.43 660.514 462.659 664.92C460.83 669.553 457.06 672.49 454.432 671.417C451.803 670.287 451.118 665.655 452.946 661.022V661.022ZM455.289 661.983C453.575 666.22 453.289 670.231 454.717 670.739C456.146 671.36 458.716 668.31 460.43 664.016C462.144 659.667 462.43 655.712 461.002 655.147C459.631 654.526 457.06 657.576 455.289 661.926V661.983Z" fill="white"></path> <path fill-rule="evenodd" clip-rule="evenodd" d="M462.259 663.451C462.259 663.451 462.259 663.508 462.316 663.564C462.43 663.847 462.316 664.525 461.973 665.259C461.573 666.219 460.888 667.01 460.488 667.01C460.145 667.01 460.202 666.163 460.659 665.202C461.002 664.412 461.516 663.734 461.916 663.508" fill="white"></path> <path fill-rule="evenodd" clip-rule="evenodd" d="M910.52 686.219C912.863 680.739 916.576 676.502 920.29 675.09L888.125 651.193L890.01 648.538L926.175 675.485C930.003 678.027 930.688 685.484 927.66 693.111C924.346 701.246 917.776 706.387 913.148 704.522C908.521 702.602 907.321 694.467 910.578 686.275L910.52 686.219ZM914.577 687.857C911.606 695.427 911.035 702.319 913.548 703.28C916.005 704.353 920.519 699.043 923.547 691.529C926.575 683.903 927.089 676.954 924.575 676.107C922.175 674.977 917.662 680.344 914.577 687.857Z" fill="white"></path> <path fill-rule="evenodd" clip-rule="evenodd" d="M926.86 690.512C926.86 690.512 926.974 690.682 927.031 690.682C927.26 691.19 927.031 692.264 926.403 693.676C925.603 695.371 924.403 696.783 923.717 696.783C923.032 696.783 923.203 695.258 923.946 693.619C924.574 692.207 925.546 690.964 926.174 690.682" fill="white"></path> <path fill-rule="evenodd" clip-rule="evenodd" d="M777.572 700.567C778.315 709.041 776.43 716.724 772.602 721.018L829.391 730.678L828.649 735.198L765.003 724.407C758.433 723.56 752.663 714.465 751.463 702.997C750.32 690.455 755.291 679.665 762.489 678.987C769.631 678.479 776.43 688.026 777.629 700.624L777.572 700.567ZM771.459 701.076C770.317 689.551 766.374 680.456 762.547 680.795C758.776 681.077 756.548 690.738 757.576 702.319C758.776 713.843 762.718 722.995 766.546 722.656C770.317 722.43 772.545 712.6 771.516 701.076H771.459Z" fill="white"></path> <path fill-rule="evenodd" clip-rule="evenodd" d="M774.088 694.975C774.088 694.975 774.317 695.088 774.431 695.144C775.117 695.596 775.688 697.178 775.916 699.325C776.202 702.149 775.688 704.635 774.831 705.143C773.974 705.595 773.06 703.731 772.831 700.906C772.603 698.703 772.831 696.556 773.403 695.596" fill="white"></path> <path fill-rule="evenodd" clip-rule="evenodd" d="M376.446 490.244C377.189 497.588 375.646 503.181 375.532 503.802C375.304 504.424 374.904 505.102 374.904 505.102L373.19 505.61C373.19 505.61 375.646 498.718 374.218 490.922C371.361 476.121 339.767 471.997 339.881 472.562L340.738 475.33L351.708 512.446C351.879 513.124 352.222 513.858 352.336 514.649C353.536 519.282 351.137 525.891 345.937 531.371C339.082 538.376 330.055 540.749 325.713 536.738C321.428 532.614 323.484 523.575 330.226 516.513C335.654 510.921 342.51 508.265 347.137 509.508L333.026 461.546L331.312 455.332L334.911 454.428C338.167 463.975 352.508 467.308 360.221 470.98C367.991 474.878 375.589 480.923 376.503 490.301L376.446 490.244Z" fill="white"></path> <path fill-rule="evenodd" clip-rule="evenodd" d="M337.596 515.836C337.596 515.836 337.767 516.174 337.767 516.4C338.11 517.361 337.767 518.886 336.625 520.185C335.197 521.88 333.254 522.558 332.169 521.711C331.14 520.863 331.426 518.83 332.854 517.135C333.997 515.779 335.482 515.101 336.511 515.384" fill="white"></path> <path fill-rule="evenodd" clip-rule="evenodd" d="M344.566 467.817C344.566 467.817 344.395 467.93 344.338 467.986C343.709 468.099 342.452 467.76 341.138 466.8C339.367 465.613 338.11 464.032 338.282 463.297C338.453 462.563 339.996 463.015 341.767 464.201C343.081 465.161 344.281 466.404 344.566 467.139" fill="white"></path> <path fill-rule="evenodd" clip-rule="evenodd" d="M738.953 863.38C739.696 870.724 738.153 876.316 738.039 876.938C737.81 877.616 737.41 878.237 737.41 878.237L735.697 878.746C735.697 878.746 738.153 871.853 736.725 864.057C733.868 849.256 702.274 845.132 702.388 845.697L703.245 848.465L714.215 885.581C714.386 886.259 714.729 886.993 714.843 887.784C716.043 892.417 713.643 899.026 708.444 904.506C701.588 911.511 692.562 913.884 688.219 909.873C683.935 905.749 685.991 896.71 692.733 889.649C698.16 884.056 705.016 881.401 709.644 882.643L695.532 834.681L693.818 828.467L697.418 827.563C700.674 837.11 715.015 840.443 722.727 844.115C730.497 848.013 738.096 854.058 739.01 863.436L738.953 863.38Z" fill="white"></path> <path fill-rule="evenodd" clip-rule="evenodd" d="M700.103 888.97C700.103 888.97 700.274 889.309 700.274 889.535C700.617 890.496 700.274 892.021 699.132 893.32C697.703 895.015 695.761 895.693 694.675 894.845C693.647 893.998 693.933 891.964 695.361 890.27C696.504 888.914 697.989 888.236 699.017 888.518" fill="white"></path> <path fill-rule="evenodd" clip-rule="evenodd" d="M707.073 840.952C707.073 840.952 706.902 841.065 706.845 841.121C706.216 841.234 704.959 840.895 703.645 839.878C701.874 838.692 700.617 837.11 700.789 836.376C700.96 835.641 702.503 836.093 704.274 837.28C705.588 838.24 706.787 839.483 707.073 840.217" fill="white"></path> <path fill-rule="evenodd" clip-rule="evenodd" d="M835.907 843.607C843.277 844.511 848.419 847.279 849.047 847.562C849.619 848.014 850.133 848.466 850.133 848.466L850.247 850.217C850.247 850.217 844.077 846.319 836.078 845.867C820.767 845.246 809.569 874.735 810.14 874.735L813.054 874.622L852.075 872.475C852.818 872.419 853.561 872.306 854.418 872.306C859.274 872.249 865.159 876.034 869.329 882.248C874.7 890.44 875.043 899.648 870.072 902.981C864.987 906.145 856.589 902.134 851.161 894.055C846.934 887.502 845.848 880.271 848.133 876.091L797.685 878.802L791.172 879.085V875.469C801.228 874.452 807.741 861.403 813.168 854.849C818.71 848.24 826.48 842.252 835.907 843.551V843.607Z" fill="white"></path> <path fill-rule="evenodd" clip-rule="evenodd" d="M852.248 886.825C852.248 886.825 852.648 886.768 852.819 886.768C853.847 886.599 855.276 887.39 856.304 888.746C857.618 890.497 857.847 892.531 856.761 893.322C855.733 894.112 853.79 893.378 852.419 891.627C851.333 890.271 850.991 888.633 851.448 887.672" fill="white"></path> <path fill-rule="evenodd" clip-rule="evenodd" d="M806.599 869.199C806.599 869.199 806.599 869.425 806.656 869.482C806.656 870.047 805.97 871.176 804.771 872.25C803.114 873.719 801.286 874.622 800.657 874.227C799.972 873.945 800.714 872.532 802.257 871.12C803.571 869.99 804.999 869.199 805.856 869.143" fill="white"></path> <path fill-rule="evenodd" clip-rule="evenodd" d="M487.799 566.623C477.344 571.538 467.46 560.013 467.403 550.353C467.46 540.071 476.373 529.507 491.855 527.699C512.023 524.762 527.963 532.445 537.504 536.851C546.874 541.483 551.445 545.777 551.445 545.777C532.705 528.321 502.139 508.548 473.916 524.253C455.805 534.083 456.89 559.392 472.202 569.108C479.915 574.023 490.884 574.701 497.454 567.753C500.083 564.815 501.739 561.199 502.082 558.092C502.654 550.974 495.912 545.042 488.77 548.432C484.428 550.635 482.714 556.059 484.828 560.522C485.857 562.386 490.713 564.758 487.799 566.623V566.623Z" fill="white"></path> <path fill-rule="evenodd" clip-rule="evenodd" d="M450.72 529.903C449.12 526.796 450.434 523.067 453.52 521.485C456.662 519.791 460.318 521.033 461.975 524.197C463.461 527.135 462.318 530.976 459.29 532.388C456.091 534.083 452.434 532.84 450.777 529.903H450.72Z" fill="white"></path> <path fill-rule="evenodd" clip-rule="evenodd" d="M468.775 516.626C467.289 513.576 468.432 509.791 471.574 508.265C474.545 506.627 478.373 507.983 479.915 510.864C481.458 513.971 480.315 517.756 477.116 519.395C474.031 520.807 470.26 519.564 468.717 516.626H468.775Z" fill="white"></path> <path fill-rule="evenodd" clip-rule="evenodd" d="M494.426 551.596C494.426 551.596 494.883 551.483 495.111 551.483C496.54 551.313 498.368 552.33 499.739 554.081C501.51 556.398 501.739 559.053 500.367 560.183C498.939 561.199 496.425 560.183 494.654 557.923C493.226 556.059 492.769 554.025 493.397 552.669" fill="white"></path> <path fill-rule="evenodd" clip-rule="evenodd" d="M533.732 532.953C533.732 532.953 533.618 533.009 533.561 533.009C533.218 533.235 532.418 533.122 531.39 532.727C530.133 532.162 529.047 531.371 529.047 530.975C529.047 530.467 530.076 530.523 531.39 531.032C532.418 531.371 533.275 532.049 533.561 532.444" fill="white"></path> <path fill-rule="evenodd" clip-rule="evenodd" d="M913.949 814.006C903.437 818.92 893.61 807.339 893.553 797.736C893.553 787.397 902.465 776.89 917.948 775.082C938.116 772.144 954.113 779.771 963.54 784.234C972.967 788.866 977.537 793.216 977.537 793.216C958.741 775.703 928.175 755.931 899.952 771.636C881.841 781.466 882.926 806.774 898.238 816.491C906.008 821.406 916.92 822.084 923.547 815.135C926.175 812.254 927.775 808.582 928.175 805.475C928.746 798.357 921.948 792.369 914.863 795.815C910.578 798.075 908.807 803.441 910.921 807.904C911.949 809.825 916.806 812.198 913.892 814.062L913.949 814.006Z" fill="white"></path> <path fill-rule="evenodd" clip-rule="evenodd" d="M876.814 777.229C875.157 774.065 876.528 770.393 879.613 768.811C882.755 767.116 886.355 768.359 888.069 771.466C889.554 774.46 888.354 778.189 885.326 779.714C882.184 781.409 878.528 780.11 876.871 777.229H876.814Z" fill="white"></path> <path fill-rule="evenodd" clip-rule="evenodd" d="M894.811 764.009C893.326 760.902 894.526 757.117 897.668 755.535C900.639 753.897 904.524 755.309 906.066 758.134C907.552 761.241 906.466 765.083 903.267 766.665C900.182 768.077 896.411 766.778 894.868 763.953L894.811 764.009Z" fill="white"></path> <path fill-rule="evenodd" clip-rule="evenodd" d="M920.577 798.923C920.577 798.923 921.091 798.81 921.263 798.753C922.634 798.64 924.462 799.657 925.89 801.408C927.662 803.725 927.89 806.38 926.519 807.51C925.148 808.526 922.577 807.51 920.748 805.306C919.32 803.442 918.863 801.295 919.492 800.052" fill="white"></path> <path fill-rule="evenodd" clip-rule="evenodd" d="M959.826 780.335H959.711C959.368 780.561 958.511 780.448 957.483 779.996C956.169 779.488 955.141 778.697 955.141 778.189C955.141 777.737 956.226 777.737 957.483 778.245C958.511 778.697 959.368 779.262 959.711 779.714" fill="white"></path> <path fill-rule="evenodd" clip-rule="evenodd" d="M678.962 644.47C680.734 647.69 677.134 651.024 674.049 651.137C670.735 651.25 667.193 648.651 666.336 643.792C665.136 637.465 667.307 632.381 668.621 629.274C669.936 626.223 671.25 624.754 671.25 624.754C665.936 630.912 660.052 640.911 665.536 649.555C668.964 655.035 677.134 654.3 679.991 649.329C681.419 646.787 681.533 643.341 679.191 641.363C678.22 640.572 677.02 640.12 675.992 640.064C673.706 640.007 671.878 642.211 673.078 644.414C673.82 645.77 675.592 646.222 677.02 645.431C677.591 645.092 678.277 643.51 678.905 644.414L678.962 644.47Z" fill="white"></path> <path fill-rule="evenodd" clip-rule="evenodd" d="M667.767 656.786C666.738 657.294 665.539 656.955 665.024 655.995C664.453 654.978 664.796 653.848 665.767 653.283C666.681 652.775 667.938 653.114 668.452 654.074C669.081 654.978 668.681 656.221 667.824 656.786H667.767Z" fill="white"></path> <path fill-rule="evenodd" clip-rule="evenodd" d="M663.195 651.249C662.224 651.814 661.024 651.532 660.453 650.571C659.882 649.724 660.282 648.424 661.139 647.916C662.11 647.351 663.367 647.634 663.938 648.594C664.452 649.498 664.052 650.741 663.195 651.193V651.249Z" fill="white"></path> <path fill-rule="evenodd" clip-rule="evenodd" d="M665.651 635.206H665.709C665.709 635.206 665.709 635.771 665.594 636.223C665.423 636.788 665.08 637.296 664.852 637.296C664.623 637.296 664.623 636.844 664.852 636.223C664.966 635.771 665.252 635.376 665.48 635.319" fill="white"></path> <path fill-rule="evenodd" clip-rule="evenodd" d="M673.593 641.872C673.593 641.872 673.593 641.816 673.593 641.703C673.708 641.477 674.165 641.194 674.85 641.081C675.707 640.799 676.564 640.855 676.736 641.081C676.964 641.307 676.393 641.703 675.536 641.929C674.85 642.098 674.165 642.155 673.822 642.098" fill="white"></path> <path fill-rule="evenodd" clip-rule="evenodd" d="M247.728 783.669C238.015 786.607 230.417 792.087 227.56 797.792L192.824 741.978L188.367 744.633L227.274 807.283C231.216 814.006 243.271 816.266 256.24 812.481C270.352 808.47 279.779 798.64 277.265 790.731C274.866 782.765 261.668 779.715 247.728 783.726V783.669ZM249.613 790.618C262.582 786.833 274.123 787.002 275.38 791.239C276.694 795.363 267.267 801.916 254.069 805.701C241.215 809.486 229.617 809.317 228.474 804.967C227.217 801.013 236.644 794.403 249.613 790.674V790.618Z" fill="white"></path> <path fill-rule="evenodd" clip-rule="evenodd" d="M192.88 749.095C192.88 749.095 192.765 749.095 192.651 749.095C192.308 749.095 191.68 748.474 191.109 747.57C190.309 746.44 189.966 745.253 190.195 744.802C190.48 744.406 191.28 745.027 192.023 746.157C192.594 747.061 193.051 748.078 192.994 748.587" fill="white"></path> <path fill-rule="evenodd" clip-rule="evenodd" d="M263.668 805.532C263.668 805.532 263.668 805.815 263.668 805.928C263.497 806.719 262.24 807.792 260.183 808.753C257.669 809.939 255.041 810.334 254.241 809.769C253.498 809.092 254.984 807.566 257.555 806.38C259.612 805.42 261.668 804.968 262.811 805.194" fill="white"></path> <path fill-rule="evenodd" clip-rule="evenodd" d="M647.77 861.006C644.856 864.34 643.371 868.068 643.599 870.836L617.604 858.125L616.576 860.159L645.656 874.508C648.684 876.09 653.712 874.169 657.654 869.763C661.939 865.017 663.139 859.255 660.339 856.882C657.597 854.453 651.998 856.374 647.77 861.063V861.006ZM650.112 863.153C654.055 858.747 658.339 856.205 659.825 857.447C661.253 858.747 659.311 863.323 655.311 867.729C651.426 872.022 647.084 874.621 645.656 873.265C644.285 872.136 646.227 867.503 650.112 863.153Z" fill="white"></path> <path fill-rule="evenodd" clip-rule="evenodd" d="M619.319 860.78C619.319 860.78 619.319 860.78 619.262 860.78C619.148 860.893 618.748 860.78 618.348 860.611C617.776 860.328 617.376 859.989 617.376 859.763C617.376 859.481 617.834 859.537 618.405 859.82C618.862 859.989 619.262 860.272 619.319 860.498" fill="white"></path> <path fill-rule="evenodd" clip-rule="evenodd" d="M658.796 865.413V865.526C658.967 865.921 658.796 866.599 658.224 867.39C657.596 868.464 656.739 869.198 656.282 869.198C655.882 869.085 656.111 868.181 656.739 867.108C657.253 866.26 657.939 865.639 658.396 865.47" fill="white"></path> <path fill-rule="evenodd" clip-rule="evenodd" d="M633.315 780.448L660.11 784.459C660.453 784.516 660.91 784.572 661.367 784.572C663.881 785.081 666.452 787.679 667.88 791.351C669.823 796.097 668.966 800.842 666.052 801.916C663.081 803.102 659.253 800.108 657.368 795.475C655.94 791.69 656.111 787.905 657.768 785.872L633.258 782.313L631.658 782.087L630.63 781.861V758.812L658.853 762.992C659.253 763.048 659.596 763.048 659.996 763.218C662.453 763.726 665.138 766.212 666.623 769.941C668.509 774.63 667.652 779.375 664.795 780.505C661.824 781.635 657.996 778.753 656.111 774.008C654.626 770.223 654.797 766.438 656.454 764.517L633.372 761.071V780.392L633.315 780.448Z" fill="white"></path> <path fill-rule="evenodd" clip-rule="evenodd" d="M661.767 795.023C661.767 795.023 661.995 794.967 662.109 794.854C662.795 794.854 663.709 795.362 664.395 796.209C665.252 797.339 665.423 798.695 664.68 799.203C663.995 799.768 662.738 799.26 661.824 798.13C661.081 797.226 660.853 796.209 661.195 795.588" fill="white"></path> <path fill-rule="evenodd" clip-rule="evenodd" d="M657.768 764.63C657.768 764.63 657.882 764.687 657.94 764.8C658.168 765.139 658.225 765.93 658.054 767.003C657.768 768.359 657.197 769.489 656.683 769.545C656.226 769.658 656.054 768.698 656.34 767.286C656.568 766.212 656.968 765.308 657.368 764.856" fill="white"></path> <path fill-rule="evenodd" clip-rule="evenodd" d="M661.082 583.231L665.024 581.536L649.198 546.172L645.371 547.923L661.139 583.231H661.082ZM668.738 579.785L706.445 563.233C707.245 563.007 708.102 562.611 708.73 562.216C713.358 560.465 720.671 561.933 727.127 566.622C735.354 572.498 739.182 581.423 735.526 586.395C731.812 591.423 722.099 590.519 713.758 584.644C707.074 579.842 703.474 573.288 704.103 568.204L655.883 589.389L655.54 588.88L654.283 586.056L638.572 550.861L637.315 548.375L637.029 547.528L689.077 524.648C689.934 524.309 690.734 523.97 691.419 523.688C696.104 521.767 703.36 523.349 709.816 527.981C718.1 533.913 721.871 542.895 718.1 547.867C714.444 552.782 704.731 551.934 696.39 546.115C689.877 541.257 686.163 534.76 686.792 529.62L652.969 544.421L668.795 579.672L668.738 579.785Z" fill="white"></path> <path fill-rule="evenodd" clip-rule="evenodd" d="M717.3 581.48C717.3 581.48 717.7 581.197 717.872 581.141C718.9 580.519 720.728 580.576 722.442 581.48C724.728 582.61 725.927 584.643 725.299 585.999C724.556 587.298 722.214 587.524 719.986 586.395C718.157 585.491 717.015 583.965 717.015 582.722" fill="white"></path> <path fill-rule="evenodd" clip-rule="evenodd" d="M689.878 531.936L690.221 532.049C690.849 532.332 691.535 533.518 692.049 535.382C692.678 537.755 692.563 540.071 691.935 540.579C691.249 541.088 690.164 539.619 689.535 537.246C689.078 535.382 689.021 533.518 689.364 532.614" fill="white"></path> <path fill-rule="evenodd" clip-rule="evenodd" d="M517.622 421.833C522.478 424.262 526.077 427.878 527.049 431.324L551.387 404.207L553.615 406.071L526.42 436.464C523.735 439.685 516.765 439.741 510.137 436.521C502.882 432.962 498.654 426.691 500.711 422.624C502.767 418.613 510.252 418.217 517.565 421.776L517.622 421.833ZM515.794 425.279C509.109 422.002 502.882 421.042 501.739 423.245C500.596 425.335 505.167 429.742 511.851 433.131C518.593 436.351 524.935 437.312 525.906 435.109C527.106 433.018 522.478 428.555 515.794 425.279Z" fill="white"></path> <path fill-rule="evenodd" clip-rule="evenodd" d="M513.338 421.833C513.338 421.833 513.453 421.72 513.51 421.664C513.967 421.438 515.052 421.664 516.309 422.285C517.966 423.076 519.109 424.206 519.109 424.827C519.109 425.449 517.795 425.336 516.195 424.545C514.824 423.923 513.738 423.076 513.453 422.455" fill="white"></path> <path fill-rule="evenodd" clip-rule="evenodd" d="M774.03 778.866C775.801 782.03 772.202 785.363 769.117 785.533C765.803 785.646 762.261 783.047 761.461 778.245C760.204 771.918 762.432 766.777 763.689 763.726C765.06 760.676 766.317 759.15 766.317 759.15C761.004 765.365 755.177 775.251 760.661 783.894C764.089 789.431 772.202 788.696 775.059 783.668C776.487 781.183 776.544 777.737 774.202 775.759C773.23 775.025 772.031 774.516 771.002 774.516C768.717 774.46 766.889 776.663 768.146 778.866C768.831 780.222 770.659 780.618 772.031 779.883C772.602 779.544 773.345 777.962 773.916 778.866H774.03Z" fill="white"></path> <path fill-rule="evenodd" clip-rule="evenodd" d="M762.833 791.069C761.805 791.69 760.662 791.239 760.091 790.335C759.462 789.374 759.862 788.188 760.833 787.68C761.748 787.115 763.004 787.454 763.462 788.357C764.09 789.374 763.747 790.504 762.833 791.069V791.069Z" fill="white"></path> <path fill-rule="evenodd" clip-rule="evenodd" d="M758.261 785.645C757.29 786.154 756.033 785.815 755.519 784.911C754.948 783.95 755.348 782.764 756.205 782.199C757.233 781.691 758.433 781.917 759.004 782.934C759.518 783.894 759.118 785.08 758.261 785.645Z" fill="white"></path> <path fill-rule="evenodd" clip-rule="evenodd" d="M760.718 769.488L760.832 769.545C760.889 769.771 760.832 770.053 760.661 770.505C760.489 771.07 760.147 771.578 759.918 771.578C759.689 771.578 759.689 771.07 759.918 770.562C760.089 770.053 760.318 769.601 760.546 769.545" fill="white"></path> <path fill-rule="evenodd" clip-rule="evenodd" d="M768.66 776.21C768.66 776.21 768.66 776.097 768.717 776.097C768.774 775.871 769.288 775.589 769.917 775.363C770.774 775.137 771.631 775.137 771.859 775.419C772.088 775.645 771.459 776.041 770.602 776.267C769.917 776.436 769.288 776.493 768.945 776.323" fill="white"></path> <path fill-rule="evenodd" clip-rule="evenodd" d="M413.87 561.201C410.213 560.862 409.413 556.116 411.013 553.461C412.727 550.693 416.898 549.224 421.411 551.201C427.353 553.744 430.495 558.376 432.324 561.144C434.095 563.912 434.666 565.833 434.666 565.833C432.438 558.037 427.353 547.699 417.012 547.416C410.442 547.134 406.557 554.252 409.185 559.336C410.499 561.935 413.356 563.856 416.269 563.121C417.469 562.669 418.498 561.992 419.126 561.201C420.497 559.336 419.64 556.568 417.069 556.399C415.584 556.342 414.213 557.529 414.041 559.11C413.984 559.732 414.898 561.257 413.813 561.257L413.87 561.201Z" fill="white"></path> <path fill-rule="evenodd" clip-rule="evenodd" d="M409.814 545.101C409.871 544.027 410.842 543.236 411.928 543.236C413.071 543.406 413.87 544.253 413.813 545.383C413.813 546.456 412.785 547.304 411.756 547.134C410.614 547.134 409.814 546.23 409.871 545.101H409.814Z" fill="white"></path> <path fill-rule="evenodd" clip-rule="evenodd" d="M416.956 544.478C417.07 543.405 417.984 542.558 419.127 542.614C420.212 542.614 421.012 543.631 420.955 544.648C420.841 545.721 419.926 546.569 418.784 546.512C417.698 546.456 416.898 545.439 416.956 544.422V544.478Z" fill="white"></path> <path fill-rule="evenodd" clip-rule="evenodd" d="M429.068 555.494H429.01C428.782 555.494 428.553 555.211 428.325 554.759C427.868 554.307 427.696 553.742 427.811 553.629C427.925 553.403 428.325 553.686 428.668 554.138C428.953 554.59 429.182 554.985 429.182 555.268" fill="white"></path> <path fill-rule="evenodd" clip-rule="evenodd" d="M419.126 558.206C419.126 558.206 419.126 558.376 419.183 558.376C419.297 558.601 419.24 559.166 419.011 559.788C418.726 560.635 418.212 561.37 417.926 561.37C417.583 561.37 417.583 560.692 417.869 559.844C418.097 559.223 418.44 558.601 418.726 558.376" fill="white"></path> <path fill-rule="evenodd" clip-rule="evenodd" d="M322.856 572.216C324.628 575.436 321.028 578.769 317.943 578.882C314.629 578.995 311.087 576.396 310.287 571.538C309.03 565.211 311.259 560.07 312.515 557.019C313.829 553.969 315.144 552.443 315.144 552.443C309.83 558.601 304.003 568.6 309.43 577.187C312.858 582.723 320.971 582.046 323.885 577.018C325.313 574.476 325.427 571.029 323.028 569.052C322.057 568.261 320.857 567.866 319.886 567.753C317.543 567.696 315.715 569.9 316.972 572.103C317.772 573.459 319.486 573.854 320.914 573.12C321.485 572.837 322.228 571.199 322.856 572.103V572.216Z" fill="white"></path> <path fill-rule="evenodd" clip-rule="evenodd" d="M311.659 584.531C310.63 585.096 309.431 584.644 308.859 583.797C308.288 582.724 308.631 581.594 309.602 581.029C310.516 580.52 311.773 580.803 312.287 581.763C312.859 582.78 312.516 583.91 311.659 584.531Z" fill="white"></path> <path fill-rule="evenodd" clip-rule="evenodd" d="M307.089 579.052C306.118 579.561 304.861 579.278 304.347 578.261C303.775 577.358 304.175 576.115 305.032 575.55C306.061 575.041 307.26 575.324 307.774 576.341C308.289 577.245 307.946 578.487 307.032 579.052H307.089Z" fill="white"></path> <path fill-rule="evenodd" clip-rule="evenodd" d="M309.545 562.896H309.659C309.659 562.896 309.659 563.404 309.488 563.912C309.316 564.477 308.974 564.986 308.745 564.986C308.517 564.986 308.517 564.59 308.745 563.969C308.917 563.46 309.202 563.065 309.374 562.952" fill="white"></path> <path fill-rule="evenodd" clip-rule="evenodd" d="M317.431 569.561C317.431 569.561 317.431 569.392 317.488 569.392C317.602 569.166 318.059 568.883 318.745 568.657C319.602 568.431 320.459 568.544 320.63 568.714C320.801 568.94 320.287 569.335 319.373 569.561C318.688 569.787 318.002 569.787 317.659 569.674" fill="white"></path> <path fill-rule="evenodd" clip-rule="evenodd" d="M540.531 609.84L556.128 612.156C556.128 612.156 556.643 612.212 556.871 612.325C558.357 612.551 559.842 614.077 560.642 616.167C561.785 618.992 561.27 621.76 559.614 622.381C557.9 623.059 555.671 621.364 554.529 618.596C553.729 616.336 553.786 614.19 554.814 613.06L540.531 610.913H539.617L538.989 610.687V597.298L555.386 599.728C555.671 599.784 555.843 599.784 556.128 599.897C557.557 600.179 559.157 601.705 560.013 603.739C561.099 606.507 560.585 609.275 558.871 609.896C557.214 610.631 554.872 608.936 553.786 606.111C552.929 603.908 553.043 601.705 554.015 600.575L540.588 598.654V609.84H540.531Z" fill="white"></path> <path fill-rule="evenodd" clip-rule="evenodd" d="M557.158 618.427C557.158 618.427 557.272 618.427 557.272 618.37C557.729 618.37 558.243 618.596 558.643 619.105C559.157 619.782 559.214 620.573 558.815 620.856C558.415 621.195 557.729 620.856 557.215 620.234C556.758 619.726 556.644 619.105 556.815 618.766" fill="white"></path> <path fill-rule="evenodd" clip-rule="evenodd" d="M554.756 600.745C554.756 600.745 554.813 600.745 554.871 600.802C554.985 600.915 555.042 601.423 554.871 601.988C554.756 602.835 554.356 603.457 554.128 603.57C553.842 603.57 553.728 603.061 553.899 602.214C554.014 601.649 554.299 601.028 554.528 600.802" fill="white"></path> <path fill-rule="evenodd" clip-rule="evenodd" d="M422.096 604.813L437.693 607.185C437.693 607.185 438.15 607.242 438.436 607.298C439.864 607.524 441.407 609.106 442.264 611.14C443.406 613.965 442.892 616.676 441.178 617.298C439.464 618.032 437.236 616.337 436.15 613.513C435.293 611.309 435.408 609.106 436.379 607.976L422.153 605.83H421.182L420.553 605.604V592.215L436.95 594.644C436.95 594.644 437.35 594.701 437.636 594.757C439.121 595.04 440.664 596.508 441.464 598.599C442.549 601.367 442.092 604.135 440.378 604.869C438.664 605.491 436.436 603.796 435.351 601.028C434.494 598.825 434.608 596.621 435.579 595.491L422.096 593.571V604.7V604.813Z" fill="white"></path> <path fill-rule="evenodd" clip-rule="evenodd" d="M438.665 613.343C438.665 613.343 438.779 613.343 438.836 613.286C439.293 613.286 439.808 613.569 440.207 614.077C440.722 614.698 440.779 615.489 440.379 615.772C439.979 616.111 439.293 615.828 438.722 615.15C438.379 614.642 438.208 614.077 438.379 613.625" fill="white"></path> <path fill-rule="evenodd" clip-rule="evenodd" d="M436.323 595.718C436.323 595.718 436.38 595.718 436.38 595.831C436.495 596.001 436.552 596.453 436.38 597.018C436.266 597.865 435.866 598.486 435.581 598.599C435.295 598.656 435.238 598.091 435.352 597.244C435.466 596.679 435.695 596.057 435.923 595.831" fill="white"></path> <path fill-rule="evenodd" clip-rule="evenodd" d="M436.207 208.91C439.806 221.339 445.577 228.4 453.518 237.948C453.404 238.4 453.118 239.812 452.261 243.258C449.347 253.144 445.52 265.403 446.434 275.911C447.862 294.158 463.63 309.637 482.427 311.275C486.255 311.558 498.596 310.315 506.423 302.406L512.307 309.468C514.821 312.631 516.421 315.964 516.935 319.297C517.392 321.839 517.221 324.325 516.421 326.641C515.85 328.11 515.05 329.579 513.907 330.822C514.193 328.788 513.907 326.585 512.936 324.664C511.965 322.8 510.422 321.275 508.594 320.258C502.766 316.981 495.625 320.427 494.082 326.698C492.025 335.172 502.366 344.55 514.421 335.115C517.049 333.082 518.763 330.539 519.792 327.771C520.706 324.89 520.934 321.839 520.363 318.676C519.677 314.834 517.849 310.936 514.993 307.321L508.708 299.751C515.678 290.712 515.45 283.085 514.193 277.267C512.764 271.335 506.308 261.11 497.11 258.229C489.226 255.799 482.598 257.212 477.057 261.223L464.43 245.687C468.43 231.959 470.486 220.661 460.431 201.849C447.233 177.331 426.552 175.354 436.207 208.854V208.91ZM463.231 249.811L474.371 263.482C468.487 269.019 465.059 284.667 474.486 293.028C483.97 301.502 492.711 297.548 492.711 297.548L492.482 296.361C492.482 296.361 491.968 296.587 487.112 295.853C482.313 295.231 479.685 292.011 477.742 287.831C476.2 284.385 476.371 276.871 481.684 272.182L504.766 300.259C494.596 310.032 472.886 311.332 463.516 298.847C455.975 288.848 456.26 278.171 458.717 266.476C460.088 260.149 461.688 254.726 463.231 249.642V249.811ZM507.051 297.717L484.655 270.374C484.655 270.374 485.055 270.205 485.227 270.092C493.911 266.025 505.509 270.6 509.279 282.52C511.165 288.565 509.965 293.65 507.051 297.717ZM443.406 201.905C445.062 192.81 453.061 195.973 456.775 204.73C460.431 213.317 458.946 226.254 455.175 234.502C447.805 225.519 441.292 214.051 443.406 201.905Z" fill="white"></path> <path fill-rule="evenodd" clip-rule="evenodd" d="M1039.87 693.506C1033.13 694.41 1029.07 696.839 1023.47 700.116C1023.24 700.003 1022.56 699.833 1020.84 699.099C1015.87 696.896 1009.76 694.071 1004.28 693.732C994.678 693.11 985.479 699.946 983.251 709.38C982.794 711.301 982.566 717.685 986.051 722.261L981.994 724.69C980.166 725.707 978.338 726.272 976.567 726.328C975.195 726.328 973.881 726.102 972.796 725.537C972.053 725.142 971.368 724.633 970.796 723.956C971.825 724.238 972.967 724.238 974.053 723.843C975.081 723.504 975.995 722.826 976.681 721.978C978.795 719.267 977.538 715.312 974.396 714.126C970.111 712.488 964.512 717.063 968.511 723.843C969.368 725.255 970.568 726.385 971.939 727.063C973.367 727.797 974.967 728.136 976.624 728.08C978.681 728.023 980.852 727.402 982.908 726.215L987.308 723.617C991.478 727.797 995.478 728.249 998.563 728.023C1001.76 727.797 1007.53 725.255 1009.7 720.792C1011.53 716.95 1011.3 713.504 1009.7 710.397L1018.73 705.087C1025.59 708.138 1031.24 710.002 1041.81 706.273C1055.52 701.415 1058.09 691.02 1039.93 693.449L1039.87 693.506ZM1016.62 704.183L1008.73 708.872C1006.28 705.482 998.391 702.545 993.364 706.725C988.279 710.906 989.65 715.651 989.65 715.651H990.278C990.278 715.651 990.278 715.369 990.964 712.939C991.592 710.51 993.478 709.437 995.763 708.759C997.706 708.194 1001.53 708.872 1003.65 711.923L987.308 721.526C983.023 715.651 983.937 704.522 991.078 700.681C996.791 697.573 1002.33 698.59 1008.22 700.681C1011.42 701.81 1014.1 703.053 1016.62 704.183V704.183ZM988.45 722.882L1004.33 713.504C1004.33 713.504 1004.39 713.73 1004.45 713.843C1005.93 718.589 1002.68 724.125 996.22 725.085C992.964 725.594 990.393 724.634 988.45 722.826V722.882ZM1042.95 697.63C1047.58 699.099 1045.35 702.997 1040.5 704.24C1035.76 705.426 1029.13 703.731 1025.19 701.189C1030.39 698.138 1036.78 695.653 1042.95 697.686V697.63Z" fill="white"></path> <path fill-rule="evenodd" clip-rule="evenodd" d="M427.408 847.788H427.18L425.123 847.11C424.723 846.997 428.208 869.368 438.949 871.119C440.72 871.402 442.263 871.345 443.691 871.345C438.492 866.656 436.606 858.973 433.407 852.985C431.579 849.652 428.951 848.353 427.408 847.844V847.788ZM445.291 872.475C443.577 872.757 441.234 872.983 438.492 872.814C431.75 872.249 427.237 866.939 424.323 861.572C421.524 856.149 418.895 845.98 411.925 843.777L412.611 841.291L417.124 842.477L431.465 846.319L476.542 858.182C475.571 854.849 477.399 849.934 481.341 845.923C486.369 841.121 492.882 839.427 495.91 842.421C498.881 845.415 497.395 851.855 492.425 856.883C488.54 860.611 483.798 862.419 480.484 861.685C479.913 861.515 479.284 861.346 478.77 861.233C472.086 859.482 454.032 854.68 453.689 854.68C453.289 854.51 456.717 876.938 467.572 878.633C473.228 879.48 478.142 877.672 478.142 877.672L477.856 878.972C477.856 878.972 477.399 879.085 476.828 879.424C476.542 879.48 472.486 880.666 467.001 880.327C461.63 879.932 457.288 875.752 457.288 875.752C457.288 875.752 456.431 875.865 455.974 875.752C455.46 875.639 450.661 875.413 447.576 873.887C446.719 873.435 446.033 873.04 445.405 872.475H445.291ZM452.832 869.085C454.375 871.91 455.974 874 455.974 874C455.974 874 454.146 873.718 451.804 873.096C443.234 870.837 440.263 858.182 438.778 850.951C446.947 851.968 449.69 863.323 452.832 869.085V869.085Z" fill="white"></path> <path fill-rule="evenodd" clip-rule="evenodd" d="M291.262 447.593L266.98 404.602L262.124 407.087L286.462 450.304L291.262 447.593V447.593ZM257.553 409.573L216.19 432.34C222.074 435.729 225.902 444.542 225.845 454.824C225.502 467.761 218.818 478.155 210.991 478.155C202.992 478.042 196.593 467.422 196.879 454.485C197.05 444.316 200.992 435.786 206.591 432.566C207.391 432.114 208.362 431.549 209.391 431.04L272.979 395.902L273.665 396.862L275.265 399.969L299.489 443.073L301.431 446.519L301.717 447.197L242.699 479.624C248.412 482.844 252.469 491.601 252.24 501.939C252.012 514.989 245.384 525.44 237.329 525.327C229.387 525.157 223.103 514.537 223.388 501.656C223.445 491.488 227.559 482.957 232.929 479.681C233.786 479.229 234.872 478.72 235.729 478.099L281.835 452.734L257.496 409.573H257.553Z" fill="white"></path> <path fill-rule="evenodd" clip-rule="evenodd" d="M380.162 362.176C381.99 366.809 381.304 371.497 378.676 372.571C375.991 373.644 372.277 370.707 370.449 366.074C368.735 361.724 369.078 357.431 371.249 355.962L391.874 340.652L392.959 342.178L374.563 355.792C376.677 356.64 378.791 359.012 380.162 362.176V362.176ZM372.163 356.357C370.735 356.866 371.021 360.82 372.735 365.227C374.448 369.464 377.019 372.514 378.448 371.949C379.819 371.384 379.533 367.43 377.876 363.193C376.105 358.843 373.534 355.792 372.163 356.414V356.357Z" fill="white"></path> <path fill-rule="evenodd" clip-rule="evenodd" d="M370.85 364.605C370.85 364.605 370.85 364.662 370.793 364.718C370.679 365.001 370.793 365.622 371.136 366.413C371.536 367.374 372.222 368.165 372.622 368.165C372.964 368.165 372.907 367.317 372.45 366.357C372.107 365.566 371.593 364.888 371.193 364.662" fill="white"></path> <path fill-rule="evenodd" clip-rule="evenodd" d="M582.639 702.94C585.895 711.132 584.695 719.323 580.068 721.187C575.44 723.052 568.87 717.911 565.556 709.776C562.528 702.149 563.214 694.692 567.041 692.15L603.206 665.203L605.092 667.858L572.926 691.755C576.64 693.167 580.353 697.404 582.696 702.884L582.639 702.94ZM568.584 692.828C566.013 693.732 566.584 700.624 569.612 708.251C572.64 715.764 577.154 721.075 579.611 720.001C582.067 719.041 581.553 712.092 578.582 704.579C575.554 697.065 570.984 691.698 568.584 692.828Z" fill="white"></path> <path fill-rule="evenodd" clip-rule="evenodd" d="M566.357 707.233C566.357 707.233 566.243 707.403 566.186 707.403C565.957 707.911 566.186 708.985 566.814 710.397C567.614 712.092 568.814 713.504 569.499 713.504C570.185 713.504 570.014 711.979 569.214 710.341C568.585 708.928 567.614 707.685 566.986 707.403" fill="white"></path> <path fill-rule="evenodd" clip-rule="evenodd" d="M689.762 689.212C690.962 676.614 697.76 667.067 704.902 667.575C712.044 668.253 717.014 679.043 715.929 691.585C714.729 703.053 708.901 712.148 702.388 712.995L638.743 723.785L638 719.266L694.79 709.606C690.962 705.369 689.019 697.629 689.819 689.155L689.762 689.212ZM700.846 711.3C704.674 711.639 708.559 702.544 709.815 690.963C710.787 679.326 708.616 669.665 704.845 669.439C700.96 669.1 697.075 678.139 695.932 689.72C694.904 701.245 697.132 711.075 700.903 711.3H700.846Z" fill="white"></path> <path fill-rule="evenodd" clip-rule="evenodd" d="M693.249 683.676C693.249 683.676 693.02 683.789 692.906 683.846C692.22 684.298 691.649 685.88 691.42 688.026C691.135 690.851 691.649 693.337 692.563 693.845C693.42 694.297 694.334 692.433 694.563 689.608C694.791 687.405 694.563 685.258 693.991 684.298" fill="white"></path> <path fill-rule="evenodd" clip-rule="evenodd" d="M624.003 602.44C618.518 607.412 615.89 612.609 615.547 613.174C615.262 613.795 615.147 614.586 615.147 614.586L616.062 616.055C616.062 616.055 618.861 609.276 625.203 604.417C637.315 595.266 663.653 613.004 663.196 613.343L660.739 614.812L627.545 635.262C626.917 635.658 626.231 635.997 625.546 636.505C621.546 639.16 618.861 645.714 619.09 653.171C619.432 662.887 624.631 670.627 630.573 670.458C636.515 670.175 641.143 662.097 640.8 652.38C640.514 644.64 637.201 638.144 632.916 635.997L675.765 609.502L681.25 605.999L679.193 602.949C670.337 607.92 657.425 600.971 649.198 598.599C640.8 596.395 631.03 595.887 624.06 602.327L624.003 602.44Z" fill="white"></path> <path fill-rule="evenodd" clip-rule="evenodd" d="M635.714 647.126C635.714 647.126 635.372 647.295 635.2 647.408C634.286 647.917 633.543 649.273 633.486 650.967C633.429 653.171 634.4 654.922 635.772 655.035C637.086 655.035 638.228 653.397 638.343 651.137C638.4 649.386 637.771 647.917 636.8 647.408" fill="white"></path> <path fill-rule="evenodd" clip-rule="evenodd" d="M662.854 606.677C662.854 606.677 662.911 606.903 662.911 606.959C663.253 607.467 664.453 608.032 666.11 608.145C668.224 608.428 670.224 608.089 670.623 607.467C670.966 606.846 669.538 606.112 667.424 605.829C665.767 605.66 664.053 605.829 663.368 606.168" fill="white"></path> <path fill-rule="evenodd" clip-rule="evenodd" d="M578.411 883.492C571.041 884.395 565.899 887.164 565.27 887.446C564.699 887.898 564.185 888.35 564.185 888.35L564.071 890.101C564.071 890.101 570.241 886.203 578.239 885.751C593.551 885.13 604.749 914.619 604.178 914.619L601.264 914.506L562.185 912.359C561.443 912.303 560.7 912.19 559.843 912.19C554.987 912.133 549.102 915.918 544.931 922.133C539.561 930.324 539.218 939.532 544.189 942.866C549.273 946.029 557.672 942.018 563.099 933.94C567.327 927.386 568.413 920.155 566.127 915.975L616.575 918.687L623.088 918.969V915.354C612.976 914.337 606.52 901.287 601.092 894.734C595.551 888.124 587.781 882.136 578.354 883.435L578.411 883.492Z" fill="white"></path> <path fill-rule="evenodd" clip-rule="evenodd" d="M562.071 926.653C562.071 926.653 561.671 926.596 561.5 926.596C560.471 926.427 559.043 927.218 558.015 928.574C556.701 930.325 556.472 932.359 557.558 933.15C558.643 933.94 560.529 933.206 561.9 931.455C562.985 930.099 563.328 928.461 562.871 927.5" fill="white"></path> <path fill-rule="evenodd" clip-rule="evenodd" d="M607.721 909.083C607.721 909.083 607.721 909.309 607.607 909.366C607.607 909.931 608.293 911.061 609.435 912.134C611.092 913.603 612.92 914.45 613.606 914.111C614.291 913.829 613.549 912.416 612.006 911.004C610.692 909.874 609.264 909.083 608.407 909.027" fill="white"></path> <path fill-rule="evenodd" clip-rule="evenodd" d="M352.507 235.802C362.963 240.717 372.846 229.192 372.904 219.532C372.846 209.25 363.934 198.686 348.451 196.878C328.283 193.997 312.343 201.624 302.802 206.03C293.432 210.663 288.862 215.013 288.862 215.013C307.601 197.556 338.167 177.784 366.39 193.489C384.501 203.319 383.416 228.627 368.104 238.344C360.392 243.259 349.422 243.937 342.852 236.988C340.224 234.051 338.567 230.435 338.224 227.328C337.653 220.21 344.395 214.278 351.536 217.668C355.878 219.871 357.592 225.294 355.478 229.757C354.45 231.622 349.594 233.994 352.507 235.859V235.802Z" fill="white"></path> <path fill-rule="evenodd" clip-rule="evenodd" d="M389.643 199.082C391.243 195.975 389.929 192.246 386.844 190.721C383.702 189.026 380.045 190.269 378.388 193.433C376.903 196.37 378.045 200.212 381.074 201.624C384.273 203.319 387.929 202.076 389.586 199.138L389.643 199.082Z" fill="white"></path> <path fill-rule="evenodd" clip-rule="evenodd" d="M371.591 185.749C373.076 182.698 371.933 178.913 368.791 177.388C365.82 175.75 361.992 177.106 360.45 179.987C358.907 183.094 360.05 186.879 363.249 188.517C366.334 189.929 370.105 188.687 371.648 185.749H371.591Z" fill="white"></path> <path fill-rule="evenodd" clip-rule="evenodd" d="M345.88 220.718C345.88 220.718 345.366 220.605 345.194 220.605C343.766 220.436 341.938 221.453 340.567 223.204C338.796 225.52 338.51 228.175 339.938 229.305C341.367 230.322 343.88 229.305 345.652 227.045C347.08 225.181 347.537 223.147 346.908 221.792" fill="white"></path> <path fill-rule="evenodd" clip-rule="evenodd" d="M306.574 202.132C306.574 202.132 306.688 202.189 306.745 202.189C307.088 202.415 307.888 202.302 308.916 201.906C310.173 201.341 311.259 200.55 311.259 200.155C311.259 199.647 310.23 199.703 308.916 200.212C307.888 200.55 307.031 201.228 306.745 201.624" fill="white"></path> <path fill-rule="evenodd" clip-rule="evenodd" d="M557.843 826.773C568.355 831.688 578.182 820.107 578.239 810.503C578.239 800.165 569.326 789.657 553.844 787.849C533.676 784.912 517.679 792.538 508.252 797.001C498.882 801.634 494.254 805.983 494.254 805.983C513.051 788.471 543.617 768.698 571.84 784.46C589.951 794.289 588.866 819.598 573.554 829.315C565.784 834.23 554.872 834.908 548.245 827.959C545.616 825.078 544.017 821.406 543.617 818.242C543.045 811.124 549.844 805.136 556.929 808.582C561.271 810.842 562.985 816.209 560.871 820.672C559.842 822.592 554.986 824.965 557.9 826.829L557.843 826.773Z" fill="white"></path> <path fill-rule="evenodd" clip-rule="evenodd" d="M594.979 790.053C596.636 786.889 595.265 783.217 592.18 781.635C589.037 779.941 585.438 781.183 583.724 784.291C582.239 787.285 583.438 791.013 586.467 792.539C589.609 794.233 593.265 792.934 594.922 789.996L594.979 790.053Z" fill="white"></path> <path fill-rule="evenodd" clip-rule="evenodd" d="M576.925 776.834C578.41 773.726 577.211 769.941 574.068 768.36C571.097 766.721 567.212 768.134 565.67 770.958C564.184 774.065 565.27 777.907 568.469 779.489C571.554 780.901 575.325 779.602 576.868 776.777L576.925 776.834Z" fill="white"></path> <path fill-rule="evenodd" clip-rule="evenodd" d="M551.215 811.689C551.215 811.689 550.758 811.576 550.529 811.52C549.158 811.407 547.33 812.424 545.902 814.175C544.131 816.491 543.902 819.146 545.273 820.276C546.644 821.293 549.215 820.276 551.044 818.073C552.472 816.209 552.929 814.062 552.3 812.819" fill="white"></path> <path fill-rule="evenodd" clip-rule="evenodd" d="M511.907 793.103C511.907 793.103 512.021 793.103 512.021 793.159C512.364 793.385 513.221 793.272 514.25 792.82C515.564 792.312 516.592 791.521 516.592 791.012C516.592 790.56 515.507 790.56 514.25 791.069C513.221 791.521 512.364 792.086 512.021 792.538" fill="white"></path> <path fill-rule="evenodd" clip-rule="evenodd" d="M732.783 647.86C731.012 651.08 734.611 654.413 737.696 654.526C741.01 654.639 744.552 652.04 745.409 647.182C746.609 640.854 744.438 635.77 743.124 632.663C741.81 629.612 740.496 628.144 740.496 628.144C745.809 634.301 751.693 644.301 746.209 652.944C742.724 658.424 734.611 657.689 731.754 652.718C730.326 650.176 730.269 646.73 732.554 644.752C733.525 643.962 734.725 643.566 735.754 643.453C738.039 643.397 739.867 645.6 738.667 647.803C737.925 649.159 736.153 649.554 734.725 648.82C734.154 648.481 733.468 646.899 732.84 647.803L732.783 647.86Z" fill="white"></path> <path fill-rule="evenodd" clip-rule="evenodd" d="M743.981 660.175C745.01 660.683 746.209 660.344 746.724 659.384C747.295 658.367 746.952 657.237 745.981 656.672C745.067 656.164 743.81 656.559 743.296 657.463C742.667 658.367 743.067 659.61 743.924 660.175H743.981Z" fill="white"></path> <path fill-rule="evenodd" clip-rule="evenodd" d="M748.55 654.639C749.521 655.204 750.721 654.921 751.292 653.961C751.863 653.114 751.463 651.814 750.606 651.362C749.635 650.797 748.378 651.08 747.807 652.04C747.293 652.944 747.693 654.187 748.607 654.695L748.55 654.639Z" fill="white"></path> <path fill-rule="evenodd" clip-rule="evenodd" d="M746.037 638.539H745.979C745.979 638.539 745.98 639.104 746.094 639.556C746.265 640.121 746.608 640.629 746.836 640.629C747.065 640.629 747.065 640.177 746.836 639.556C746.722 639.104 746.437 638.709 746.265 638.652" fill="white"></path> <path fill-rule="evenodd" clip-rule="evenodd" d="M738.153 645.261C738.153 645.261 738.153 645.205 738.153 645.148C738.038 644.923 737.581 644.64 736.896 644.471C736.039 644.188 735.182 644.245 735.01 644.471C734.782 644.697 735.41 645.148 736.21 645.318C736.896 645.431 737.581 645.544 737.924 645.431" fill="white"></path> <path fill-rule="evenodd" clip-rule="evenodd" d="M799.113 812.197C794.885 807.508 789.286 805.587 786.544 808.017C783.687 810.389 784.944 816.152 789.229 820.897C793.114 825.303 798.142 827.224 801.227 825.642L830.307 811.293L829.279 809.26L803.284 821.97C803.512 819.202 802.027 815.417 799.113 812.141V812.197ZM801.227 824.456C799.799 825.812 795.457 823.213 791.572 818.92C787.572 814.457 785.63 809.881 787.058 808.638C788.544 807.395 792.829 809.937 796.771 814.344C800.713 818.75 802.598 823.326 801.227 824.456Z" fill="white"></path> <path fill-rule="evenodd" clip-rule="evenodd" d="M827.567 812.027C827.567 812.027 827.567 812.027 827.624 812.027C827.738 812.14 828.138 812.027 828.538 811.858C829.11 811.575 829.509 811.236 829.509 811.01C829.509 810.728 829.052 810.784 828.481 811.067C828.024 811.236 827.624 811.519 827.567 811.745" fill="white"></path> <path fill-rule="evenodd" clip-rule="evenodd" d="M788.031 816.66L787.974 816.773C787.859 817.169 788.088 817.847 788.602 818.637C789.231 819.711 790.088 820.445 790.602 820.445C791.002 820.332 790.773 819.428 790.145 818.355C789.631 817.508 788.945 816.886 788.488 816.717" fill="white"></path> <path fill-rule="evenodd" clip-rule="evenodd" d="M834.021 769.094L807.226 773.105C806.883 773.161 806.426 773.218 805.969 773.218C803.455 773.726 800.941 776.325 799.456 779.997C797.513 784.742 798.37 789.488 801.284 790.561C804.255 791.747 808.083 788.753 809.968 784.121C811.397 780.336 811.225 776.607 809.568 774.517L834.078 770.958L835.678 770.732L836.706 770.506V747.457L808.483 751.637C808.083 751.694 807.74 751.694 807.34 751.863C804.883 752.372 802.198 754.858 800.713 758.586C798.827 763.275 799.684 768.02 802.541 769.15C805.512 770.28 809.34 767.399 811.225 762.654C812.711 758.869 812.539 755.084 810.882 753.163L833.964 749.717V769.037L834.021 769.094Z" fill="white"></path> <path fill-rule="evenodd" clip-rule="evenodd" d="M805.57 783.669C805.57 783.669 805.341 783.612 805.227 783.499C804.541 783.499 803.627 784.007 802.941 784.855C802.084 785.985 801.913 787.341 802.656 787.849C803.341 788.414 804.598 787.905 805.512 786.776C806.198 785.872 806.484 784.855 806.141 784.233" fill="white"></path> <path fill-rule="evenodd" clip-rule="evenodd" d="M809.568 753.333C809.568 753.333 809.454 753.389 809.396 753.502C809.168 753.841 809.111 754.632 809.339 755.706C809.625 757.062 810.196 758.191 810.711 758.248C811.168 758.361 811.339 757.4 811.053 755.988C810.825 754.915 810.425 754.011 810.025 753.559" fill="white"></path> <path fill-rule="evenodd" clip-rule="evenodd" d="M451.804 454.823L467.515 419.515L463.687 417.764L447.862 453.129L451.804 454.823V454.823ZM459.974 416.126L426.151 401.325C426.78 406.465 423.009 412.962 416.553 417.82C408.212 423.639 398.442 424.487 394.843 419.572C391.072 414.6 394.843 405.618 403.127 399.686C409.583 395.054 416.839 393.472 421.524 395.393C422.209 395.675 423.009 396.014 423.866 396.353L475.914 419.233L475.628 420.08L474.371 422.566L458.66 457.761L457.403 460.586L457.06 461.094L408.897 439.909C409.526 444.937 405.926 451.547 399.242 456.349C390.958 462.224 381.188 463.128 377.474 458.1C373.818 453.072 377.646 444.203 385.873 438.327C392.329 433.638 399.642 432.17 404.27 433.921C404.898 434.26 405.755 434.712 406.555 434.938L444.262 451.49L460.088 416.239L459.974 416.126Z" fill="white"></path> <path fill-rule="evenodd" clip-rule="evenodd" d="M395.584 453.071C395.584 453.071 395.184 452.789 395.013 452.732C393.984 452.111 392.156 452.168 390.442 453.071C388.157 454.201 386.957 456.235 387.643 457.591C388.385 458.89 390.728 459.116 392.956 457.986C394.784 457.082 395.984 455.557 395.984 454.314" fill="white"></path> <path fill-rule="evenodd" clip-rule="evenodd" d="M423.009 403.528C423.009 403.528 422.78 403.585 422.666 403.641C422.037 403.924 421.352 405.11 420.838 406.974C420.209 409.347 420.323 411.663 420.952 412.172C421.637 412.68 422.723 411.211 423.351 408.839C423.808 406.974 423.866 405.11 423.58 404.206" fill="white"></path> <path fill-rule="evenodd" clip-rule="evenodd" d="M388.901 787.962C396.214 784.403 403.698 784.799 405.755 788.81C407.812 792.877 403.641 799.148 396.328 802.707C389.701 805.871 382.731 805.871 380.046 802.65L352.851 772.257L355.079 770.393L379.417 797.51C380.388 794.007 383.988 790.448 388.844 788.019L388.901 787.962ZM380.617 801.238C381.588 803.441 387.93 802.425 394.672 799.261C401.299 795.928 405.927 791.465 404.784 789.375C403.641 787.171 397.414 788.132 390.729 791.408C384.045 794.685 379.417 799.148 380.617 801.238Z" fill="white"></path> <path fill-rule="evenodd" clip-rule="evenodd" d="M393.129 788.02C393.129 788.02 393.015 787.907 392.958 787.85C392.501 787.624 391.415 787.85 390.158 788.472C388.502 789.263 387.359 790.392 387.359 791.014C387.359 791.635 388.673 791.522 390.273 790.731C391.644 790.11 392.729 789.263 393.015 788.641" fill="white"></path> <path fill-rule="evenodd" clip-rule="evenodd" d="M693.303 767.512C691.532 770.676 695.131 774.009 698.216 774.178C701.53 774.291 705.072 771.692 705.872 766.891C707.129 760.563 704.901 755.422 703.644 752.372C702.273 749.321 701.016 747.796 701.016 747.796C706.329 754.01 712.157 763.896 706.672 772.54C703.244 778.076 695.131 777.342 692.275 772.314C690.846 769.828 690.732 766.382 693.132 764.405C694.103 763.67 695.303 763.162 696.331 763.162C698.616 763.105 700.444 765.309 699.188 767.512C698.445 768.868 696.674 769.263 695.245 768.529C694.674 768.19 693.931 766.608 693.36 767.512H693.303Z" fill="white"></path> <path fill-rule="evenodd" clip-rule="evenodd" d="M704.502 779.771C705.53 780.393 706.673 779.941 707.244 779.037C707.873 778.076 707.473 776.89 706.501 776.382C705.587 775.817 704.33 776.156 703.873 777.06C703.245 778.076 703.588 779.206 704.502 779.771V779.771Z" fill="white"></path> <path fill-rule="evenodd" clip-rule="evenodd" d="M709.013 774.291C709.984 774.799 711.241 774.46 711.755 773.556C712.327 772.596 711.927 771.41 711.07 770.845C710.041 770.336 708.842 770.562 708.27 771.579C707.756 772.539 708.156 773.726 709.013 774.291Z" fill="white"></path> <path fill-rule="evenodd" clip-rule="evenodd" d="M706.616 758.134L706.502 758.191C706.445 758.417 706.502 758.699 706.673 759.151C706.845 759.716 707.187 760.225 707.359 760.225C707.53 760.225 707.587 759.716 707.359 759.208C707.187 758.699 706.959 758.304 706.73 758.191" fill="white"></path> <path fill-rule="evenodd" clip-rule="evenodd" d="M698.674 764.856C698.674 764.856 698.674 764.743 698.617 764.743C698.56 764.517 698.046 764.235 697.418 764.009C696.561 763.783 695.704 763.783 695.475 764.065C695.247 764.291 695.875 764.687 696.732 764.913C697.418 765.082 698.046 765.139 698.389 764.969" fill="white"></path> <path fill-rule="evenodd" clip-rule="evenodd" d="M500.996 987.381C504.653 987.042 505.453 982.297 503.853 979.642C502.139 976.874 497.968 975.405 493.455 977.382C487.513 979.924 484.371 984.557 482.543 987.325C480.772 990.093 480.2 992.014 480.2 992.014C482.428 984.218 487.513 973.879 497.854 973.597C504.424 973.315 508.252 980.433 505.681 985.573C504.367 988.172 501.511 990.093 498.597 989.359C497.397 988.907 496.369 988.229 495.74 987.438C494.369 985.63 495.226 982.805 497.797 982.636C499.282 982.579 500.654 983.766 500.825 985.348C500.882 986.025 499.968 987.494 501.054 987.494L500.996 987.381Z" fill="white"></path> <path fill-rule="evenodd" clip-rule="evenodd" d="M505.053 971.336C504.996 970.263 504.025 969.472 502.939 969.472C501.797 969.585 500.997 970.489 501.111 971.619C501.111 972.692 502.139 973.54 503.168 973.427C504.31 973.427 505.11 972.523 505.11 971.336H505.053Z" fill="white"></path> <path fill-rule="evenodd" clip-rule="evenodd" d="M497.91 970.716C497.796 969.642 496.882 968.795 495.739 968.851C494.654 968.851 493.854 969.868 493.911 970.885C494.025 971.958 494.997 972.806 496.139 972.749C497.225 972.693 498.025 971.676 497.967 970.659L497.91 970.716Z" fill="white"></path> <path fill-rule="evenodd" clip-rule="evenodd" d="M485.743 981.731H485.8C486.028 981.731 486.2 981.448 486.485 980.996C486.942 980.545 487.114 979.98 487 979.867C486.885 979.641 486.485 979.923 486.143 980.375C485.857 980.827 485.628 981.222 485.628 981.505" fill="white"></path> <path fill-rule="evenodd" clip-rule="evenodd" d="M495.741 984.444C495.741 984.444 495.741 984.613 495.684 984.613C495.569 984.839 495.626 985.404 495.855 986.026C496.141 986.873 496.655 987.607 496.94 987.607C497.283 987.607 497.283 986.93 496.998 986.082C496.769 985.461 496.426 984.839 496.141 984.613" fill="white"></path> <path fill-rule="evenodd" clip-rule="evenodd" d="M526.819 244.332C525.047 247.495 528.647 250.885 531.732 250.998C535.046 251.111 538.588 248.512 539.388 243.654C540.645 237.326 538.416 232.186 537.16 229.135C535.845 226.084 534.531 224.559 534.531 224.559C539.845 230.717 545.672 240.716 540.245 249.303C536.817 254.839 528.704 254.161 525.79 249.133C524.362 246.591 524.248 243.145 526.647 241.168C527.618 240.377 528.818 239.982 529.789 239.869C532.132 239.869 533.96 242.015 532.703 244.219C531.903 245.574 530.189 245.97 528.761 245.235C528.133 244.953 527.447 243.315 526.819 244.219V244.332Z" fill="white"></path> <path fill-rule="evenodd" clip-rule="evenodd" d="M537.96 256.59C538.988 257.155 540.188 256.703 540.759 255.856C541.331 254.782 540.988 253.652 540.017 253.087C539.102 252.579 537.845 252.861 537.331 253.822C536.76 254.839 537.103 255.969 537.96 256.59Z" fill="white"></path> <path fill-rule="evenodd" clip-rule="evenodd" d="M542.531 251.111C543.502 251.62 544.759 251.337 545.273 250.321C545.844 249.417 545.445 248.174 544.588 247.609C543.616 247.1 542.359 247.383 541.845 248.4C541.331 249.304 541.674 250.546 542.588 251.111H542.531Z" fill="white"></path> <path fill-rule="evenodd" clip-rule="evenodd" d="M540.074 235.01H539.96C539.96 235.01 539.96 235.519 540.131 236.027C540.303 236.592 540.646 237.101 540.874 237.101C541.045 237.101 541.103 236.649 540.874 236.084C540.703 235.575 540.417 235.18 540.246 235.067" fill="white"></path> <path fill-rule="evenodd" clip-rule="evenodd" d="M532.19 241.677C532.19 241.677 532.19 241.507 532.133 241.507C532.018 241.281 531.561 240.999 530.876 240.773C530.019 240.547 529.105 240.66 528.99 240.829C528.819 241.055 529.333 241.451 530.247 241.677C530.933 241.903 531.618 241.903 531.961 241.846" fill="white"></path> <path fill-rule="evenodd" clip-rule="evenodd" d="M423.924 958.626L408.327 960.943C408.327 960.943 407.812 960.999 407.584 961.112C406.099 961.338 404.613 962.863 403.813 964.954C402.671 967.778 403.185 970.546 404.842 971.168C406.556 971.846 408.784 970.151 409.926 967.383C410.726 965.179 410.669 962.976 409.641 961.846L423.924 959.7H424.838L425.466 959.474V946.085L409.069 948.514C408.784 948.571 408.612 948.571 408.327 948.684C406.898 948.966 405.299 950.491 404.442 952.525C403.356 955.293 403.87 958.061 405.584 958.683C407.241 959.417 409.584 957.722 410.612 954.898C411.469 952.695 411.355 950.491 410.383 949.362L423.81 947.441V958.626H423.924Z" fill="white"></path> <path fill-rule="evenodd" clip-rule="evenodd" d="M407.356 967.157C407.356 967.157 407.242 967.157 407.242 967.1C406.784 967.1 406.27 967.326 405.87 967.834C405.356 968.512 405.299 969.303 405.699 969.586C406.099 969.925 406.784 969.586 407.299 968.964C407.756 968.456 407.87 967.834 407.699 967.439" fill="white"></path> <path fill-rule="evenodd" clip-rule="evenodd" d="M409.698 949.531C409.698 949.531 409.641 949.531 409.584 949.588C409.47 949.701 409.413 950.209 409.584 950.774C409.699 951.621 410.098 952.243 410.327 952.356C410.613 952.356 410.727 951.847 410.613 951C410.498 950.435 410.213 949.814 409.984 949.588" fill="white"></path> <path fill-rule="evenodd" clip-rule="evenodd" d="M604.52 435.899L588.923 438.271C588.923 438.271 588.466 438.271 588.18 438.384C586.752 438.61 585.209 440.192 584.352 442.226C583.21 445.051 583.724 447.762 585.438 448.384C587.152 449.118 589.38 447.423 590.466 444.599C591.323 442.395 591.208 440.192 590.237 439.062L604.463 436.916H605.434L606.063 436.69V423.301L589.666 425.73C589.666 425.73 589.266 425.786 588.98 425.843C587.495 426.125 585.952 427.594 585.152 429.684C584.067 432.453 584.524 435.221 586.238 435.955C587.952 436.577 590.18 434.882 591.265 432.114C592.122 429.91 592.008 427.707 591.037 426.577L604.52 424.657V435.786V435.899Z" fill="white"></path> <path fill-rule="evenodd" clip-rule="evenodd" d="M587.952 444.429C587.952 444.429 587.838 444.429 587.781 444.372C587.381 444.372 586.809 444.655 586.409 445.163C585.895 445.784 585.838 446.575 586.238 446.858C586.638 447.197 587.324 446.914 587.895 446.236C588.238 445.728 588.409 445.163 588.238 444.768" fill="white"></path> <path fill-rule="evenodd" clip-rule="evenodd" d="M590.295 426.804C590.295 426.804 590.238 426.804 590.238 426.86C590.124 427.03 590.067 427.482 590.181 428.047C590.295 428.894 590.695 429.515 590.981 429.628C591.266 429.685 591.324 429.12 591.209 428.273C591.095 427.708 590.867 427.086 590.638 426.86" fill="white"></path> <path d="M606.861 410.364C597.72 384.152 590.636 356.64 585.494 328.506C570.24 247.608 572.353 158.745 577.667 76.4917C577.838 76.8871 578.01 77.3391 578.181 77.7345C562.184 246.083 585.037 446.859 690.732 553.235C797.169 674.92 973.823 689.213 1112.31 626.619C1167.9 604.361 1213.89 593.74 1255.54 595.548C1289.94 597.017 1320.56 607.129 1344.27 625.884C1373.86 649.272 1387.35 682.095 1396.09 705.2C1405.12 730.34 1410.83 749.717 1411 749.886C1410.83 749.886 1410.66 749.886 1410.54 749.886C1410.43 749.717 1404.66 730.396 1395.63 705.37C1386.95 682.321 1373.41 649.668 1343.98 626.449C1289.59 584.927 1212.75 586.226 1112.71 627.297C1041.18 656.221 965.881 671.305 891.952 660.853C816.937 650.854 744.322 613.626 690.389 553.969C654.567 514.82 626.058 465.558 606.919 410.421L606.861 410.364Z" fill="#EA9090"></path> <path d="M570.296 414.884C562.812 391.214 556.927 366.47 552.471 341.048C536.645 252.863 540.759 153.774 551.386 57.1716C551.557 57.6236 551.728 58.019 551.9 58.471C541.045 155.582 537.445 260.715 555.499 352.347C572.639 444.486 611.546 523.125 664.851 579.391C778.316 704.241 963.082 711.754 1100.37 642.946C1155.5 618.258 1200.18 605.83 1240.75 606.113C1274.28 606.339 1304.22 615.377 1328.27 633.229C1358.15 655.374 1373.64 687.406 1383.92 710.059C1394.66 734.634 1401.86 753.785 1402.03 753.954H1401.57C1401.57 753.954 1394.2 734.69 1383.46 710.229C1373.18 687.688 1357.75 655.826 1327.99 633.738C1272.97 594.419 1199.95 598.034 1100.77 643.567C1029.87 675.712 952.798 693.959 876.24 685.541C798.54 677.689 722.04 641.477 664.508 580.126C623.201 536.626 590.693 479.851 570.296 414.828V414.884Z" fill="#EA9090"></path> <path d="M530.82 419.911C525.049 399.574 520.307 378.502 516.651 356.809C499.968 261.28 505.739 151.401 522.764 39.5452C522.936 39.9971 523.107 40.4491 523.278 40.901C505.967 153.435 500.711 269.866 519.908 368.955C538.133 468.608 580.754 550.918 637.715 608.315C759.178 735.65 952.057 735.028 1088.6 659.497C1143.45 632.155 1187.16 617.919 1226.86 616.619C1259.72 615.546 1289.14 623.512 1313.48 640.403C1343.76 661.362 1361.07 692.602 1372.78 714.804C1385.06 738.87 1393.75 757.795 1393.86 757.964C1393.75 757.964 1393.58 757.964 1393.4 757.964C1393.23 757.795 1384.61 738.926 1372.32 714.917C1360.61 692.828 1343.36 661.757 1313.19 640.855C1257.49 603.739 1187.67 609.727 1089 660.119C1018.44 695.709 939.545 717.516 860.131 711.697C779.574 706.386 698.846 671.813 637.258 609.162C589.666 561.369 552.473 496.29 530.82 419.855V419.911Z" fill="#EA9090"></path> <path d="M488.084 425.674C483.971 409.686 480.486 393.19 477.629 376.299C459.632 273.256 466.717 152.418 491.055 24.2922C491.227 24.7442 491.398 25.1961 491.569 25.6481C466.774 154.508 460.375 282.577 481.114 389.236C500.939 496.459 547.902 582.159 608.805 640.403C739.124 769.32 940.23 759.264 1076.43 676.558C1131.17 646.335 1174.07 630.178 1213.09 627.24C1245.43 624.811 1274.45 631.703 1299.19 647.578C1329.93 667.35 1348.9 697.8 1362.04 719.549C1375.81 743.163 1385.81 761.863 1385.98 762.089C1385.81 762.089 1385.69 762.089 1385.58 762.089C1385.41 761.919 1375.46 743.276 1361.7 719.775C1348.61 698.082 1329.64 667.802 1299.08 648.143C1242.52 613.23 1175.5 621.704 1076.95 677.236C1006.56 716.555 925.719 742.373 843.334 739.604C759.749 737.458 674.507 704.918 608.519 641.42C553.729 589.39 510.937 515.271 488.199 425.674H488.084Z" fill="#EA9090"></path> <path d="M441.978 432.113C439.578 421.606 437.407 410.872 435.522 400.025C415.697 289.469 423.638 157.276 456.089 12.2585C456.261 12.7105 456.432 13.1624 456.603 13.5579C423.524 159.479 416.439 299.581 439.235 413.697C461.231 528.49 513.165 617.297 578.467 675.88C718.613 805.531 927.889 784.516 1064.09 693.958C1118.88 660.627 1161.16 642.493 1199.78 637.86C1231.72 634.075 1260.46 639.781 1285.65 654.695C1316.85 673.225 1337.47 702.94 1351.87 724.294C1367.07 747.456 1378.26 765.986 1378.43 766.155C1378.32 766.155 1378.15 766.212 1378.03 766.212C1377.86 766.042 1366.67 747.569 1351.47 724.52C1337.07 703.335 1316.5 673.733 1285.42 655.26C1228.01 622.664 1163.22 633.567 1064.55 694.692C994.105 738.135 911.263 768.415 825.736 769.262C738.952 770.731 649.025 741.016 578.067 677.123C514.993 621.082 465.573 536.964 441.863 432.17L441.978 432.113Z" fill="#EA9090"></path> <path d="M392.102 439.231C391.359 435.616 390.673 432 389.988 428.328C367.763 310.315 375.876 166.484 417.183 3.9541C417.354 4.34955 417.583 4.80149 417.754 5.25343C375.705 168.8 368.563 321.161 394.158 442.79C419.011 565.097 476.543 656.729 546.759 715.199C697.703 844.511 915.034 811.011 1051.52 712.035C1106.49 675.315 1148.42 655.147 1186.7 648.763C1218.41 643.509 1246.97 648.029 1272.63 661.926C1304.39 679.269 1326.56 708.194 1342.21 729.096C1358.72 751.806 1371.18 770.166 1371.35 770.336C1371.24 770.336 1371.12 770.336 1370.95 770.392C1370.78 770.223 1358.38 751.976 1341.87 729.379C1326.27 708.589 1304.16 679.778 1272.57 662.548C1214.18 632.324 1151.16 645.656 1052.1 712.77C981.422 760.563 896.524 795.871 807.74 800.898C717.642 806.661 622.802 780.335 546.416 716.555C473.915 656.785 416.611 561.708 392.102 439.344V439.231Z" fill="#EA9090"></path> <path d="M338.112 446.293C316.288 323.704 325.2 173.264 373.877 0C374.048 0.39545 374.277 0.7909 374.448 1.18635C322.801 182.924 316.516 347.77 345.597 476.799C374.106 606.564 437.98 700.455 513.452 758.36C676.222 886.26 901.266 838.693 1038.44 730.565C1093.69 690.229 1135.51 667.915 1173.67 659.667C1205.27 652.888 1233.83 656.221 1260 669.101C1292.34 685.145 1315.99 713.391 1332.84 733.842C1350.67 756.1 1364.21 774.291 1364.38 774.404C1364.27 774.404 1364.15 774.46 1364.04 774.517C1363.87 774.347 1350.33 756.213 1332.56 734.068C1315.76 713.674 1292.17 685.597 1259.94 669.61C1200.47 641.815 1138.77 657.577 1039.07 731.187C967.997 783.782 881.099 824.626 788.944 834.456C695.418 845.076 595.437 822.875 513.166 759.716C432.895 698.929 367.707 597.129 340.969 461.546C339.94 456.462 339.026 451.378 338.112 446.237V446.293Z" fill="#EA9090"></path> <path d="M279.837 453.241C261.269 328.901 272.067 177.048 325.657 1.01636C325.886 1.41181 326.114 1.75076 326.286 2.14621C200.88 408.217 314.231 697.968 478.829 805.87C654.34 931.114 886.926 867.786 1024.96 749.716C1080.6 705.425 1122.48 680.908 1160.65 670.739C1192.3 662.434 1220.92 664.468 1247.66 676.332C1280.68 691.133 1305.76 718.645 1323.76 738.643C1342.79 760.45 1357.47 778.471 1357.7 778.64C1357.58 778.64 1357.47 778.753 1357.35 778.81C1357.18 778.64 1342.5 760.675 1323.47 738.982C1305.54 719.04 1280.51 691.698 1247.66 676.953C1186.99 651.701 1126.2 669.778 1025.64 750.45C954.056 808.242 865.216 855.188 769.576 870.498C672.622 886.654 567.27 869.311 478.658 807.451C392.331 747.908 319.715 643.905 288.578 500.356C285.265 485.047 282.351 469.342 279.951 453.185L279.837 453.241Z" fill="#EA9090"></path> <path d="M217.106 460.022C202.137 334.946 214.935 183.32 272.124 7.62695C272.353 7.96591 272.581 8.30487 272.81 8.64383C128.836 453.242 267.782 754.18 442.779 858.014C631.944 979.36 871.672 898.519 1010.79 769.715C1066.95 721.075 1109.06 694.297 1147.45 682.095C1179.27 672.152 1208.07 672.999 1235.38 683.79C1269.14 697.291 1295.59 724.013 1314.73 743.672C1334.96 765.026 1350.73 782.878 1350.9 783.048C1350.78 783.104 1350.67 783.16 1350.56 783.217C1350.33 783.048 1334.67 765.252 1314.45 744.011C1295.37 724.464 1268.97 697.856 1235.32 684.411C1173.39 661.757 1113 682.151 1011.42 770.393C939.202 833.778 848.362 887.559 749.351 908.97C648.855 931.341 538.019 919.647 442.55 859.708C349.71 802.086 268.811 696.331 232.303 545.043C225.79 518.096 220.648 489.737 217.106 459.965V460.022Z" fill="#EA9090"></path> <path d="M149.575 465.953C138.548 341.443 153.631 192.246 212.649 20.2815C212.878 20.564 213.163 20.9029 213.449 21.1854C131.235 259.642 134.321 463.129 179.17 613.287C224.361 764.518 311.374 862.42 405.414 915.015C609.205 1031.11 855.503 930.946 995.877 790.448C1052.67 737.176 1095.17 707.969 1133.91 693.789C1166.02 682.208 1195.16 681.756 1223.15 691.473C1257.77 703.675 1285.6 729.662 1305.82 748.926C1327.25 769.828 1344.04 787.511 1344.27 787.68C1344.16 787.737 1344.04 787.793 1343.99 787.906C1343.76 787.737 1327.02 770.111 1305.65 749.265C1285.48 730.114 1257.72 704.24 1223.21 692.151C1159.9 672.152 1099.4 694.749 996.677 791.239C923.719 860.725 831.05 921.907 728.498 950.21C624.517 979.586 508.081 974.332 405.3 916.992C305.489 861.912 215.506 754.971 172.485 596.169C161.63 556.06 153.746 512.673 149.575 465.953Z" fill="#EA9090"></path> <path d="M77.2451 469.964C70.6177 347.94 87.986 203.939 146.775 39.6018C147.061 39.8278 147.347 40.1102 147.689 40.3362C55.4205 298.282 64.4474 514.933 116.609 671.587C169.628 829.541 265.725 927.556 366.849 977.1C586.123 1086.41 838.477 965.067 980.28 811.915C1037.7 753.558 1080.89 721.866 1120.03 705.539C1152.59 692.264 1182.13 690.512 1210.87 699.156C1246.4 710.002 1275.6 735.311 1296.96 754.123C1319.59 774.574 1337.36 792.143 1337.59 792.312C1337.47 792.369 1337.41 792.482 1337.3 792.538C1337.07 792.369 1319.3 774.913 1296.74 754.519C1275.48 735.763 1246.35 710.624 1210.92 699.834C1146.08 682.603 1085.12 707.291 981.023 812.706C907.265 888.746 812.825 958.119 706.844 994.048C599.321 1031.11 477.286 1033.2 366.735 979.247C259.669 927.5 159.687 820.05 109.011 653.961C92.3281 598.994 81.0158 537.812 77.2451 469.964Z" fill="#EA9090"></path> <path d="M0.115857 470.472C-1.71238 353.532 17.884 218.175 74.0452 66.0396C74.388 66.2655 74.7308 66.435 75.0164 66.6045C-26.8506 344.323 -10.1108 574.136 50.5066 737.061C112.552 901.399 218.476 998.849 327.142 1044.66C562.699 1145.62 820.366 1001.28 963.825 834.398C1021.93 770.562 1065.92 736.214 1105.74 717.741C1138.88 702.714 1168.99 699.607 1198.53 707.233C1235.03 716.78 1265.66 741.298 1288.11 759.715C1311.88 779.713 1330.67 797.17 1330.96 797.339C1330.84 797.396 1330.79 797.509 1330.67 797.565C1330.44 797.396 1311.65 780.052 1287.94 760.11C1265.6 741.807 1235.03 717.345 1198.64 707.911C1132.14 693.449 1070.26 720.17 964.682 835.246C890.067 918.46 793.971 996.646 684.562 1040.94C573.611 1086.53 445.92 1096.81 327.199 1046.98C212.306 999.358 101.469 892.021 41.8797 718.927C17.427 647.351 1.71556 564.815 0.115857 470.472Z" fill="#EA9090"></path> <path fill-rule="evenodd" clip-rule="evenodd" d="M701.759 990.941H702.159L705.301 990.32C705.987 990.263 685.991 962.017 670.222 966.875C667.594 967.609 665.537 968.683 663.595 969.756C673.821 972.694 681.534 981.789 690.104 987.834C694.846 991.167 699.303 991.28 701.759 990.941V990.941ZM660.681 969.135C662.795 967.666 665.823 965.802 669.708 964.276C679.192 960.491 688.962 964.728 696.674 970.152C704.216 975.575 714.614 987.721 725.583 986.083L726.498 989.924L719.527 991.28L697.417 995.63L627.887 1009.41C631.601 1013.2 632.4 1021.05 629.715 1029.07C626.116 1039.07 618.403 1045.63 612.29 1043.59C606.12 1041.45 603.834 1031.67 607.205 1021.62C609.89 1013.93 615.204 1008.28 620.231 1007.1C621.088 1006.82 622.117 1006.76 622.974 1006.59C633.257 1004.5 661.138 999.076 661.595 998.85C662.224 998.793 642.284 970.604 626.402 975.518C618.06 978.061 612.576 983.823 612.576 983.823L612.061 981.902C612.061 981.902 612.633 981.281 613.147 980.659C613.604 980.32 618.232 976.027 625.887 972.863C633.486 969.813 642.284 972.75 642.284 972.75C642.284 972.75 643.313 971.903 644.056 971.733C644.798 971.564 651.483 968.683 656.796 968.683C658.224 968.739 659.424 968.739 660.681 969.135V969.135ZM652.74 978.852C648.683 975.914 645.084 974.163 645.084 974.163C645.084 974.163 647.769 973.315 651.368 972.694C664.509 970.039 677.249 985.348 684.105 994.105C672.279 998.229 660.852 984.614 652.74 978.852Z" fill="white"></path> <path fill-rule="evenodd" clip-rule="evenodd" d="M1242.29 600.632C1271.08 573.911 1250 564.025 1223.15 580.182C1202.52 592.61 1197.95 604.587 1193.78 619.953L1172.59 627.692C1169.56 620.744 1164.07 615.603 1155.05 613.4C1144.53 610.914 1132.42 617.128 1127.62 622.043C1123.05 626.958 1118.37 634.189 1119.85 646.787L1109.4 650.572C1104.54 652.38 1100.54 655.035 1097.69 658.368C1095.29 661.08 1093.74 664.13 1093 667.463C1092.32 670.683 1092.54 674.129 1093.8 677.575C1099.86 693.393 1115.23 690.343 1118.25 681.021C1120.48 674.129 1115.57 666.729 1108.08 666.616C1105.68 666.559 1103.34 667.124 1101.34 668.367C1099.29 669.723 1097.63 671.587 1096.77 673.677C1096.43 671.813 1096.49 669.949 1096.83 668.254C1097.34 665.542 1098.66 663.057 1100.6 660.91C1103.11 658.029 1106.54 655.713 1110.83 654.074L1120.48 650.628C1123.45 662.718 1134.65 670.966 1138.42 672.83C1157.33 681.925 1181.44 675.937 1193.5 659.272C1200.35 649.668 1203.84 635.771 1206.87 624.585C1207.95 620.744 1208.58 619.275 1208.69 618.766C1221.83 614.021 1231.43 610.575 1242.17 600.632H1242.29ZM1192.58 624.585C1191.1 630.347 1189.5 636.449 1187.1 643.341C1182.58 655.882 1176.7 666.333 1163.67 671.7C1147.51 678.366 1127.45 664.808 1123.34 649.611L1161.79 635.658C1164.19 643.284 1160.07 650.515 1156.48 653.001C1152.19 655.826 1147.79 657.464 1142.82 655.317C1137.79 653.171 1137.34 652.719 1137.34 652.719L1136.48 653.735C1136.48 653.735 1142.59 662.435 1156.65 659.667C1170.59 657.012 1176.3 639.951 1173.9 631.308L1192.53 624.529L1192.58 624.585ZM1122.71 645.713C1122.25 640.177 1124.14 634.528 1129.39 629.839C1139.91 620.518 1153.68 622.721 1159.67 631.534C1159.79 631.703 1159.9 631.929 1160.07 632.099L1122.65 645.657L1122.71 645.713ZM1209.27 614.529C1210.35 604.417 1216.46 591.198 1224.98 584.984C1233.66 578.713 1243.2 580.238 1239.49 589.899C1234.52 602.779 1221.55 610.067 1209.32 614.586L1209.27 614.529Z" fill="white"></path> </svg> 