<?xml version="1.0" encoding="UTF-8"?> <svg xmlns="http://www.w3.org/2000/svg" width="1409" height="558" viewBox="0 0 1409 558" fill="none"> <g clip-path="url(#clip0_215_2)"> <path d="M317.883 199.763C264.791 227.205 207.166 262.93 179.713 319.917L179.325 319.793C179.041 320.334 178.413 320.152 178.245 319.725C175.714 324.501 99.2511 413.147 98.3023 415C96.7663 418 24.0636 498.5 14.8477 510.5C7.47506 520.1 -5.29059 541.833 -10.7518 551.5L1420.26 568.5L1408 78.707C1391.34 181.538 1320.57 277.434 1224.73 313.86C1196.63 324.491 1165.94 330.671 1136.29 326.221C1107.54 321.895 1083.97 307.803 1063.77 286.788C1053.54 276.281 1043.96 264.784 1032.17 255.884C1018.32 245.377 1002.65 240.185 985.425 238.084C948.39 233.633 909.93 240.803 875.226 255.142C818.119 278.753 770.595 319.793 722.682 358.856C697.819 379.129 672.309 398.536 645.762 416.461C614.684 437.475 581.533 458.613 545.793 469.368C523.39 476.167 493.089 478.763 482.859 452.062C475.607 433.396 477.938 410.651 482.47 391.49C490.11 359.474 506.297 330.424 522.484 302.116C538.282 274.426 555.634 246.119 563.533 214.72C567.159 200.504 569.49 183.816 563.275 169.971C556.023 153.778 539.707 145.248 523.002 142.652C488.039 137.337 450.226 146.608 416.946 157.363C382.889 168.364 349.868 183.198 317.883 199.763Z" fill="#CBCBCB"></path> <path d="M179.713 319.917C207.166 262.93 264.79 227.205 317.883 199.763C349.868 183.198 382.889 168.364 416.946 157.363C450.226 146.608 488.038 137.337 523.002 142.652C539.706 145.248 556.023 153.778 563.274 169.971C569.49 183.816 567.159 200.504 563.533 214.72C555.634 246.119 538.282 274.426 522.484 302.116C506.297 330.424 490.11 359.474 482.47 391.49C477.938 410.651 475.607 433.396 482.858 452.062C493.088 478.763 523.39 476.167 545.793 469.368C581.533 458.613 614.684 437.475 645.762 416.461C672.308 398.536 697.819 379.129 722.682 358.856C770.594 319.793 818.119 278.753 875.226 255.142C909.93 240.803 948.39 233.633 985.425 238.084C1002.65 240.185 1018.32 245.377 1032.17 255.884C1043.96 264.784 1053.54 276.281 1063.77 286.788C1083.97 307.803 1107.54 321.895 1136.29 326.221C1165.94 330.671 1196.63 324.491 1224.73 313.86C1322.63 276.652 1394.37 177.388 1409 72.068C1409 71.3263 1407.96 71.3263 1407.83 72.068C1398.38 139.686 1366.01 202.606 1318.61 250.445C1274.2 295.194 1211.65 329.064 1148.85 326.345C1116.21 324.862 1088.63 310.646 1065.84 287.406C1056.26 277.64 1047.19 267.133 1036.7 258.109C1025.44 248.467 1012.88 242.41 998.504 239.196C930.52 223.744 859.945 254.772 804.004 293.463C767.487 318.557 734.466 348.472 699.502 375.667C669.33 399.154 638.122 421.529 605.23 440.566C588.785 450.084 571.691 458.861 553.951 465.412C540.354 470.357 525.333 474.313 510.829 472.582C468.873 467.39 478.456 406.942 487.132 378.634C497.232 345.876 515.75 316.456 532.325 286.912C546.57 261.57 561.85 234.128 566.641 204.955C568.713 192.346 568.713 179.613 563.404 167.87C557.836 155.508 545.922 147.968 533.75 143.889C519.635 139.191 503.966 139.438 489.204 140.675C471.204 142.158 453.463 145.619 435.982 150.193C382.889 164.161 331.091 188.761 283.567 216.945C241.999 241.668 200.043 273.685 178.288 319.175C177.9 319.917 178.936 320.535 179.324 319.793L179.713 319.917Z" fill="white"></path> <path d="M136.72 279.495C166.634 223.497 226.46 189.873 281.624 164.409C314.775 149.08 348.961 135.483 384.054 125.593C418.37 115.951 457.218 108.164 492.57 114.839C509.534 118.053 525.85 127.077 532.713 143.641C538.67 157.61 535.692 174.298 531.548 188.39C522.354 219.417 503.836 247.107 486.872 274.303C469.52 302.116 452.039 330.424 443.103 362.317C437.794 381.23 434.816 403.975 441.42 422.888C451.003 449.96 481.952 448.477 505.002 442.543C541.778 433.149 576.353 413.123 608.597 393.344C636.179 376.409 662.855 357.867 688.883 338.583C738.997 301.251 788.723 261.941 847.902 240.556C883.772 227.576 923.268 221.766 960.821 227.576C978.303 230.296 994.101 235.982 1007.83 247.107C1019.48 256.379 1028.93 268.246 1039.04 279.247C1058.98 301.004 1082.42 315.961 1111.68 321.4C1141.72 326.963 1173.32 321.895 1202.2 312.253C1303.2 278.629 1379.73 181.962 1398.12 77.2598C1398.12 76.5181 1397.09 76.3945 1396.96 77.2598C1385.04 144.507 1349.95 206.314 1299.97 252.299C1253.22 295.441 1188.34 326.963 1124.37 321.895C1091.22 319.299 1063.51 303.97 1041.11 279.865C1031.65 269.729 1022.85 258.851 1012.49 249.58C1001.35 239.567 988.662 233.015 974.288 229.307C905.527 211.382 832.492 239.814 774.22 276.404C736.149 300.138 701.574 328.817 664.927 354.776C633.33 377.151 600.827 398.289 566.641 416.213C549.548 425.237 531.936 433.272 513.548 439.082C499.433 443.532 484.153 446.994 469.391 444.645C426.787 437.846 438.571 377.892 448.413 349.708C459.808 317.321 479.621 288.642 497.491 259.716C512.901 234.869 529.346 208.045 535.174 178.995C537.764 166.51 538.152 153.654 533.102 141.787C527.793 129.302 516.009 121.267 503.707 116.817C489.462 111.501 473.535 111.254 458.384 111.872C439.996 112.737 421.866 115.581 403.867 119.536C349.35 131.527 295.739 154.272 246.272 180.726C203.021 203.842 159.252 234.375 135.555 279C135.166 279.618 136.202 280.36 136.591 279.618L136.72 279.495Z" fill="white"></path> <path d="M94.2468 237.465C126.491 182.58 188.777 151.181 245.755 127.694C280.071 113.602 315.293 101.241 351.422 92.7112C386.774 84.4289 426.658 78.0009 462.398 85.9123C479.492 89.7444 495.808 99.3864 502.412 116.198C507.98 130.414 504.484 146.978 499.693 160.947C489.333 191.604 469.521 218.675 451.262 245.253C432.615 272.324 413.838 300.138 403.738 331.536C397.781 350.326 393.896 372.947 399.982 392.108C408.917 419.55 440.384 419.179 464.082 414.111C501.894 406.076 537.764 387.41 571.303 368.744C600.051 352.798 627.892 335.245 654.956 316.826C707.272 281.348 759.328 243.893 820.32 224.609C857.355 212.865 897.757 208.539 935.829 215.832C953.44 219.17 969.368 225.474 983.094 237.094C994.619 246.86 1003.94 258.974 1013.78 270.347C1033.34 292.845 1056.78 308.667 1086.43 315.095C1116.86 321.771 1149.23 317.815 1179.02 309.285C1283.13 279.37 1364.32 185.546 1386.6 81.5858C1386.73 80.8441 1385.56 80.7205 1385.43 81.4622C1371.06 148.214 1333.25 208.786 1280.8 252.917C1231.72 294.328 1164.52 323.501 1099.51 316.084C1065.84 312.252 1038.13 295.935 1015.99 270.965C1006.66 260.457 997.986 249.332 987.756 239.566C976.749 229.059 964.059 222.137 949.426 217.81C880.017 197.29 804.651 223.125 743.919 257.491C704.423 279.865 668.035 307.308 629.964 331.907C597.072 353.169 563.145 373.071 527.663 389.759C509.923 398.041 491.664 405.582 472.758 410.774C458.255 414.729 442.456 417.572 427.565 414.729C384.313 406.323 398.299 346.741 409.306 319.051C421.996 287.158 443.104 259.098 462.398 230.79C478.974 206.561 496.585 180.355 503.578 151.552C506.556 139.191 507.462 126.335 502.671 114.344C497.75 101.611 485.837 93.2056 473.535 88.261C459.161 82.4511 442.974 81.5858 427.565 81.7094C408.788 81.833 390.141 84.0581 371.753 87.2721C315.811 97.2849 260.258 117.929 209.108 142.652C164.303 164.161 118.592 193.087 92.9518 236.847C92.5633 237.465 93.4698 238.206 93.8583 237.588L94.2468 237.465Z" fill="white"></path> <path d="M52.4201 193.953C87.2541 140.18 151.613 111.13 210.532 89.7449C246.014 76.8889 282.402 65.7635 319.437 58.5938C355.695 51.5477 396.615 46.6031 432.744 55.8743C450.097 60.3244 466.413 70.5845 472.499 87.6434C477.679 102.106 473.535 118.424 468.226 132.269C456.701 162.554 435.464 188.884 416.04 214.72C396.097 241.174 376.026 268.122 364.76 299.273C358.026 317.815 353.235 340.313 358.933 359.597C367.091 387.411 399.205 388.152 423.55 383.95C462.398 377.274 499.563 359.845 534.397 342.538C564.181 327.705 593.187 311.14 621.417 293.71C675.934 260.211 730.322 224.609 792.997 207.674C831.068 197.29 872.377 194.447 911.096 203.1C928.966 207.056 945.023 213.978 958.62 226.093C970.015 236.229 979.08 248.714 988.792 260.458C1007.96 283.697 1031.4 300.386 1061.31 307.926C1092.13 315.714 1125.15 312.871 1155.84 305.454C1262.93 279.371 1348.92 188.514 1375.07 85.4183C1375.2 84.6767 1374.04 84.553 1373.91 85.2947C1357.07 151.553 1316.41 210.641 1261.51 252.917C1210.1 292.474 1140.69 319.175 1074.65 309.409C1040.46 304.341 1012.75 286.911 991.123 261.199C981.929 250.321 973.512 238.949 963.411 228.812C952.534 217.934 939.843 210.517 925.081 205.696C855.025 182.704 777.328 205.696 714.264 237.836C673.215 258.727 635.273 284.81 595.648 308.05C561.461 328.075 526.239 346.741 489.463 362.07C471.075 369.734 452.168 376.533 432.744 380.983C417.852 384.444 401.666 386.669 386.515 383.208C342.746 373.319 359.062 314.23 371.105 286.911C385.09 255.39 407.622 228.194 428.212 200.628C445.953 177.017 464.729 151.429 472.758 122.874C476.254 110.512 477.549 97.7799 473.146 85.6656C468.485 72.8096 456.701 63.9093 444.399 58.4702C429.895 52.1658 413.45 50.6824 397.781 50.1879C378.745 49.5699 359.58 51.1769 340.674 53.7728C283.308 61.6842 226.072 80.3501 172.979 103.095C126.491 122.997 79.0959 150.193 51.3842 193.087C50.9957 193.705 51.9022 194.447 52.2907 193.829L52.4201 193.953Z" fill="white"></path> <path d="M11.2409 148.833C48.4057 96.42 115.095 69.7191 175.957 50.5587C212.604 38.9389 249.899 29.2969 288.099 23.4869C325.264 17.8006 367.091 14.3394 403.738 24.9703C421.219 30.0386 437.536 40.9167 443.233 58.2229C448.025 72.8095 443.233 89.1267 437.406 102.724C424.586 132.639 402.184 158.228 381.465 183.322C360.228 209.034 338.99 235.24 326.3 266.02C318.789 284.315 313.221 306.566 318.401 326.221C325.782 354.282 358.544 356.26 383.407 352.922C423.162 347.73 461.751 331.66 497.75 315.59C528.57 301.745 558.742 286.417 588.137 269.976C644.856 238.454 701.444 204.954 765.933 190.244C805.169 181.344 847.384 179.984 886.362 189.997C904.491 194.571 920.548 202.111 934.016 214.72C945.282 225.351 954.087 238.207 963.54 250.198C982.317 274.179 1005.63 291.609 1035.8 300.262C1067.01 309.162 1100.8 307.555 1132.27 301.251C1242.34 279.124 1332.86 191.48 1363.03 89.2503C1363.29 88.5086 1361.99 88.2614 1361.86 89.0031C1342.44 154.643 1299.06 212.248 1241.56 252.423C1187.82 290.125 1116.21 314.23 1049.14 301.992C1014.43 295.688 986.849 277.269 965.612 250.692C956.677 239.443 948.39 227.7 938.548 217.316C927.8 206.067 915.11 198.156 900.218 192.84C829.514 167.252 749.616 187.401 684.222 217.192C641.748 236.6 602.123 261.323 560.943 282.956C525.333 301.745 488.815 319.175 451.003 333.144C431.967 340.19 412.543 346.247 392.601 349.955C377.321 352.798 360.745 354.529 345.465 350.45C301.178 338.954 319.696 280.483 333.034 253.535C348.314 222.631 372.141 196.178 394.155 169.353C412.932 146.361 433.003 121.514 442.197 93.206C446.212 80.9681 447.895 68.3593 443.881 55.9978C439.607 42.8946 427.953 33.6234 415.521 27.8135C401.018 21.0146 384.184 18.9132 368.256 17.8006C348.832 16.5645 329.278 17.3062 309.984 19.284C251.193 25.0939 192.274 41.6584 137.498 62.4258C89.4553 80.5973 40.2476 106.062 10.5934 147.844C10.2049 148.462 11.1114 149.327 11.4999 148.586H11.2409V148.833Z" fill="white"></path> <path d="M179.713 319.917C207.166 262.93 264.791 227.205 317.883 199.763C349.868 183.198 382.889 168.364 416.946 157.363C450.226 146.608 488.038 137.337 523.002 142.652C539.707 145.248 556.023 153.778 563.274 169.971C569.49 183.816 567.159 200.504 563.533 214.72C555.634 246.119 538.282 274.426 522.484 302.116C506.297 330.424 490.11 359.474 482.47 391.49C477.938 410.651 475.607 433.396 482.859 452.062C493.089 478.763 523.39 476.167 545.793 469.368C581.533 458.613 614.684 437.475 645.762 416.461C672.309 398.536 697.819 379.129 722.682 358.856C770.595 319.793 818.119 278.753 875.226 255.142C909.93 240.803 948.39 233.633 985.425 238.084C1002.65 240.185 1018.32 245.377 1032.17 255.884C1043.96 264.784 1053.54 276.281 1063.77 286.788C1083.97 307.803 1107.54 321.895 1136.29 326.221C1165.94 330.671 1196.63 324.491 1224.73 313.86C1322.63 276.652 1394.37 177.388 1409 72.068C1409 71.3263 1407.96 71.3263 1407.83 72.068C1398.38 139.686 1366.01 202.606 1318.61 250.445C1274.2 295.194 1211.65 329.064 1148.85 326.345C1116.21 324.862 1088.63 310.646 1065.84 287.406C1056.26 277.64 1047.19 267.133 1036.7 258.109C1025.44 248.467 1012.88 242.41 998.504 239.196C930.52 223.744 859.945 254.772 804.004 293.463C767.487 318.557 734.466 348.472 699.502 375.667C669.33 399.154 638.122 421.529 605.231 440.566C588.785 450.084 571.692 458.861 553.951 465.412C540.354 470.357 525.333 474.313 510.829 472.582C468.873 467.39 478.456 406.942 487.132 378.634C497.233 345.876 515.75 316.456 532.325 286.912C546.57 261.57 561.85 234.128 566.641 204.955C568.713 192.346 568.713 179.613 563.404 167.87C557.836 155.508 545.922 147.968 533.75 143.889C519.635 139.191 503.966 139.438 489.204 140.675C471.204 142.158 453.464 145.619 435.982 150.193C382.889 164.161 331.092 188.761 283.567 216.945C242 241.668 200.044 273.685 178.289 319.175C177.9 319.917 178.936 320.535 179.325 319.793L179.713 319.917Z" fill="black"></path> <mask id="mask0_215_2" style="mask-type:alpha" maskUnits="userSpaceOnUse" x="-11" y="71" width="1432" height="498"> <path d="M317.883 199.763C264.791 227.205 207.166 262.93 179.713 319.917L179.325 319.793C179.041 320.334 178.413 320.152 178.245 319.725C175.714 324.501 99.2511 413.147 98.3023 415C96.7663 418 24.0636 498.5 14.8477 510.5C7.47506 520.1 -5.29059 541.833 -10.7518 551.5L1420.26 568.5L1408 78.707C1391.34 181.538 1320.57 277.434 1224.73 313.86C1196.63 324.491 1165.94 330.671 1136.29 326.221C1107.54 321.895 1083.97 307.803 1063.77 286.788C1053.54 276.281 1043.96 264.784 1032.17 255.884C1018.32 245.377 1002.65 240.185 985.425 238.084C948.39 233.633 909.93 240.803 875.226 255.142C818.119 278.753 770.595 319.793 722.682 358.856C697.819 379.129 672.309 398.536 645.762 416.461C614.684 437.475 581.533 458.613 545.793 469.368C523.39 476.167 493.089 478.763 482.859 452.062C475.607 433.396 477.938 410.651 482.47 391.49C490.11 359.474 506.297 330.424 522.484 302.116C538.282 274.426 555.634 246.119 563.534 214.72C567.159 200.504 569.49 183.816 563.275 169.971C556.023 153.778 539.707 145.248 523.002 142.652C488.039 137.337 450.226 146.608 416.946 157.363C382.889 168.364 349.868 183.198 317.883 199.763Z" fill="#BDB9B9"></path> </mask> <g mask="url(#mask0_215_2)"> <path d="M136.721 279.495C166.634 223.497 226.46 189.873 281.625 164.409C314.775 149.08 348.962 135.483 384.055 125.593C418.371 115.951 457.219 108.164 492.571 114.839C509.534 118.053 525.851 127.077 532.714 143.641C538.671 157.61 535.692 174.298 531.548 188.39C522.354 219.417 503.837 247.107 486.873 274.303C469.521 302.116 452.039 330.424 443.104 362.317C437.795 381.23 434.816 403.975 441.42 422.888C451.003 449.96 481.952 448.477 505.002 442.543C541.778 433.149 576.353 413.123 608.597 393.344C636.18 376.409 662.855 357.867 688.884 338.583C738.998 301.251 788.724 261.941 847.902 240.556C883.772 227.576 923.268 221.766 960.821 227.576C978.303 230.296 994.101 235.982 1007.83 247.107C1019.48 256.379 1028.94 268.246 1039.04 279.247C1058.98 301.004 1082.42 315.961 1111.68 321.4C1141.72 326.963 1173.32 321.895 1202.2 312.253C1303.2 278.629 1379.73 181.962 1398.12 77.2598C1398.12 76.5181 1397.09 76.3945 1396.96 77.2598C1385.04 144.507 1349.95 206.314 1299.97 252.299C1253.22 295.441 1188.34 326.963 1124.37 321.895C1091.22 319.299 1063.51 303.97 1041.11 279.865C1031.65 269.729 1022.85 258.851 1012.49 249.58C1001.35 239.567 988.662 233.015 974.289 229.307C905.527 211.382 832.493 239.814 774.22 276.404C736.149 300.138 701.574 328.817 664.927 354.776C633.331 377.151 600.828 398.289 566.641 416.213C549.548 425.237 531.937 433.272 513.549 439.082C499.434 443.532 484.153 446.994 469.391 444.645C426.788 437.846 438.572 377.892 448.413 349.708C459.809 317.321 479.621 288.642 497.491 259.716C512.901 234.869 529.347 208.045 535.174 178.995C537.764 166.51 538.153 153.654 533.102 141.787C527.793 129.302 516.009 121.267 503.707 116.817C489.463 111.501 473.535 111.254 458.384 111.872C439.996 112.737 421.867 115.581 403.867 119.536C349.35 131.527 295.74 154.272 246.273 180.726C203.022 203.842 159.253 234.375 135.555 279C135.167 279.618 136.203 280.36 136.591 279.618L136.721 279.495Z" fill="black"></path> <path d="M94.2471 237.465C126.491 182.58 188.778 151.181 245.755 127.694C280.071 113.602 315.294 101.241 351.422 92.7112C386.774 84.4289 426.658 78.0009 462.399 85.9123C479.492 89.7444 495.808 99.3864 502.413 116.198C507.981 130.414 504.484 146.978 499.693 160.947C489.334 191.604 469.521 218.675 451.262 245.253C432.615 272.324 413.839 300.138 403.738 331.536C397.781 350.326 393.896 372.947 399.983 392.108C408.918 419.55 440.385 419.179 464.082 414.111C501.894 406.076 537.764 387.41 571.303 368.744C600.051 352.798 627.892 335.245 654.957 316.826C707.272 281.348 759.329 243.893 820.32 224.609C857.356 212.865 897.758 208.539 935.829 215.832C953.44 219.17 969.368 225.474 983.094 237.094C994.619 246.86 1003.94 258.974 1013.78 270.347C1033.34 292.845 1056.78 308.667 1086.43 315.095C1116.86 321.771 1149.24 317.815 1179.02 309.285C1283.13 279.37 1364.33 185.546 1386.6 81.5858C1386.73 80.8441 1385.56 80.7205 1385.43 81.4622C1371.06 148.214 1333.25 208.786 1280.8 252.917C1231.72 294.328 1164.52 323.501 1099.51 316.084C1065.84 312.252 1038.13 295.935 1015.99 270.965C1006.66 260.457 997.986 249.332 987.756 239.566C976.749 229.059 964.059 222.137 949.426 217.81C880.017 197.29 804.652 223.125 743.919 257.491C704.423 279.865 668.035 307.308 629.964 331.907C597.073 353.169 563.145 373.071 527.664 389.759C509.923 398.041 491.664 405.582 472.758 410.774C458.255 414.729 442.457 417.572 427.565 414.729C384.314 406.323 398.299 346.741 409.306 319.051C421.997 287.158 443.104 259.098 462.399 230.79C478.974 206.561 496.585 180.355 503.578 151.552C506.556 139.191 507.463 126.335 502.671 114.344C497.751 101.611 485.837 93.2056 473.535 88.261C459.161 82.4511 442.975 81.5858 427.565 81.7094C408.788 81.833 390.141 84.0581 371.753 87.2721C315.811 97.2849 260.259 117.929 209.108 142.652C164.303 164.161 118.592 193.087 92.9522 236.847C92.5637 237.465 93.4702 238.206 93.8586 237.588L94.2471 237.465Z" fill="black"></path> <path d="M11.241 148.833C48.4058 96.42 115.095 69.7191 175.958 50.5587C212.604 38.9389 249.899 29.2969 288.099 23.4869C325.264 17.8006 367.091 14.3394 403.738 24.9703C421.219 30.0386 437.536 40.9167 443.233 58.2229C448.025 72.8095 443.233 89.1267 437.406 102.724C424.586 132.639 402.184 158.228 381.465 183.322C360.228 209.034 338.991 235.24 326.3 266.02C318.79 284.315 313.221 306.566 318.401 326.221C325.782 354.282 358.544 356.26 383.407 352.922C423.162 347.73 461.751 331.66 497.75 315.59C528.57 301.745 558.742 286.417 588.137 269.976C644.856 238.454 701.445 204.954 765.933 190.244C805.169 181.344 847.384 179.984 886.362 189.997C904.491 194.571 920.549 202.111 934.016 214.72C945.282 225.351 954.088 238.207 963.541 250.198C982.317 274.179 1005.63 291.609 1035.8 300.262C1067.01 309.162 1100.8 307.555 1132.27 301.251C1242.34 279.124 1332.86 191.48 1363.03 89.2503C1363.29 88.5086 1361.99 88.2614 1361.86 89.0031C1342.44 154.643 1299.06 212.248 1241.56 252.423C1187.82 290.125 1116.21 314.23 1049.14 301.992C1014.43 295.688 986.85 277.269 965.613 250.692C956.678 239.443 948.39 227.7 938.548 217.316C927.8 206.067 915.11 198.156 900.218 192.84C829.514 167.252 749.616 187.401 684.222 217.192C641.748 236.6 602.123 261.323 560.944 282.956C525.333 301.745 488.815 319.175 451.003 333.144C431.967 340.19 412.543 346.247 392.601 349.955C377.321 352.798 360.746 354.529 345.465 350.45C301.178 338.954 319.696 280.483 333.034 253.535C348.314 222.631 372.141 196.178 394.155 169.353C412.932 146.361 433.003 121.514 442.197 93.206C446.212 80.9681 447.895 68.3593 443.881 55.9978C439.608 42.8946 427.953 33.6234 415.522 27.8135C401.018 21.0146 384.184 18.9132 368.256 17.8006C348.832 16.5645 329.279 17.3062 309.984 19.284C251.194 25.0939 192.274 41.6584 137.498 62.4258C89.4555 80.5973 40.2477 106.062 10.5935 147.844C10.2051 148.462 11.1115 149.327 11.5 148.586H11.241V148.833Z" fill="black"></path> <path d="M52.4203 193.953C87.2542 140.18 151.613 111.13 210.533 89.7449C246.014 76.8889 282.402 65.7635 319.437 58.5938C355.695 51.5477 396.616 46.6031 432.744 55.8743C450.097 60.3244 466.413 70.5845 472.499 87.6434C477.679 102.106 473.535 118.424 468.226 132.269C456.701 162.554 435.464 188.884 416.04 214.72C396.098 241.174 376.026 268.122 364.76 299.273C358.026 317.815 353.235 340.313 358.933 359.597C367.091 387.411 399.205 388.152 423.55 383.95C462.399 377.274 499.563 359.845 534.397 342.538C564.181 327.705 593.188 311.14 621.417 293.71C675.934 260.211 730.322 224.609 792.997 207.674C831.068 197.29 872.377 194.447 911.096 203.1C928.966 207.056 945.023 213.978 958.62 226.093C970.015 236.229 979.08 248.714 988.792 260.458C1007.96 283.697 1031.4 300.386 1061.31 307.926C1092.13 315.714 1125.15 312.871 1155.84 305.454C1262.93 279.371 1348.92 188.514 1375.07 85.4183C1375.2 84.6767 1374.04 84.553 1373.91 85.2947C1357.07 151.553 1316.41 210.641 1261.51 252.917C1210.1 292.474 1140.69 319.175 1074.65 309.409C1040.46 304.341 1012.75 286.911 991.123 261.199C981.929 250.321 973.512 238.949 963.411 228.812C952.534 217.934 939.843 210.517 925.081 205.696C855.025 182.704 777.328 205.696 714.265 237.836C673.215 258.727 635.273 284.81 595.648 308.05C561.462 328.075 526.239 346.741 489.463 362.07C471.075 369.734 452.169 376.533 432.744 380.983C417.853 384.444 401.666 386.669 386.515 383.208C342.746 373.319 359.062 314.23 371.105 286.911C385.091 255.39 407.623 228.194 428.212 200.628C445.953 177.017 464.729 151.429 472.758 122.874C476.254 110.512 477.549 97.7799 473.147 85.6656C468.485 72.8096 456.701 63.9093 444.399 58.4702C429.896 52.1658 413.45 50.6824 397.781 50.1879C378.745 49.5699 359.58 51.1769 340.674 53.7728C283.308 61.6842 226.072 80.3501 172.979 103.095C126.491 122.997 79.096 150.193 51.3843 193.087C50.9958 193.705 51.9023 194.447 52.2908 193.829L52.4203 193.953Z" fill="black"></path> </g> </g> <defs> <clipPath id="clip0_215_2"> <rect width="1409" height="558" fill="white"></rect> </clipPath> </defs> </svg> 