<?xml version="1.0" encoding="UTF-8"?> <svg xmlns="http://www.w3.org/2000/svg" id="a" viewBox="0 0 16.26 20.8"> <defs> <style>.b{fill:#fff;}</style> </defs> <path class="b" d="M16.18,17.32c-.39-1.34-1.81-2.14-2.82-2.98-.41-.34-.41-.32-.23-.8,.11-.29,.2-.59,.25-.9,.09-.57,.06-1.17-.13-1.72-.81-2.38-3.92-3.24-5.66-1.34-.41-.34-.82-.67-1.23-1.01-.17-.14-.69-.41-.66-.66,.08-.73,.08-1.47-.03-2.2-.25-1.72-1.1-3.33-2.49-4.4C2.51,.82,1.75,.28,.94,.04,.14-.19,0,.54,0,1.19c.02,1.75,1.12,3.42,2.31,4.61,.39,.39,1.55,1.02,1.47,1.59-.11,.83-.21,1.66-.25,2.49-.06,1.54,.09,3.17,1.04,4.44,1.99,2.65,6.11,2.93,8.11,.13,1.06,.85,2.86,1.81,3.05,3.3,.08,.62-.16,1.21-.56,1.67-.33,.38-1.12,.98-1.62,.56,1.1-.72,.65-2.38-.65-2.5-1.31-.12-1.87,1.39-1.24,2.4,1.47,2.36,5.19-.22,4.51-2.55ZM3.92,6.39s-.01,.09-.04,.12c-.93-.67-1.68-1.59-2.1-2.66-.25-.62-.65-2.28,.41-2.44,.87-.13,1.41,1.17,1.61,1.82,.31,1.02,.3,2.11,.12,3.15Zm8.26,7.94c-.79,1.04-2.17,1.71-3.48,1.63-2.98-.17-3.65-3.44-3.34-5.85,.07-.52,.16-1.03,.26-1.54,.36,.28,.71,.58,1.06,.87,.27,.22,.71,.38,.54,.73-.28,.59-.37,1.23-.31,1.87,.13,1.26,1.14,2.24,2.4,2.38,.15,.02,1.65-.02,1.37-.4-.12-.16-1.12,.04-1.38-.04-1.21-.41-1.37-2.03-.71-2.96,.66,.55,1.32,1.1,1.98,1.64,.37,.3,.74,.61,1.1,.91,.27,.23,.77,.42,.52,.75Zm.42-.62c-1.22-1.01-2.45-2.02-3.68-3.03-.13-.14,1.18-.56,1.33-.58,.55-.04,1.12,.12,1.58,.45,1,.72,1.25,2.06,.77,3.15Z"></path> </svg> 